<svg xmlns="http://www.w3.org/2000/svg" xmlns:xlink="http://www.w3.org/1999/xlink" width="1000" height="700" version="1.1">
<style type="text/css">
.l0{
  fill: #000000;
  stroke: #000000;
  stroke-linecap:round;
  stroke-linejoin:round;
  stroke-width: 0.600742;
}
.l1{
  fill: #00ccee;
  stroke: #00ccee;
  stroke-linecap:round;
  stroke-linejoin:round;
  stroke-width: 0.600742;
}
.l2{
  fill: #4f4f4f; fill-opacity: 0.2;
  stroke: #4f4f4f;
  stroke-linecap:round;
  stroke-linejoin:round;
  stroke-width: 0.600742;
}
.l3{
  fill: #cccccc; fill-opacity: 0.5;
  stroke: #cccccc;
  stroke-linecap:round;
  stroke-linejoin:round;
  stroke-width: 0.600742;
}
.l4{
  fill: #88dd00;
  stroke: #88dd00;
  stroke-linecap:round;
  stroke-linejoin:round;
  stroke-width: 0.600742;
}
.l5{
  fill: #bb2200;
  stroke: #bb2200;
  stroke-linecap:round;
  stroke-linejoin:round;
  stroke-width: 0.600742;
}
.l6{
  fill: #00ccee; fill-opacity: 0.5;
  stroke: #00ccee;
  stroke-linecap:round;
  stroke-linejoin:round;
  stroke-width: 0.600742;
}
.l7{
  fill: #ff0000; fill-opacity: 0.5;
  stroke: #ff0000;
  stroke-linecap:round;
  stroke-linejoin:round;
  stroke-width: 0.600742;
}
.l8{
  fill: #ffff00; fill-opacity: 0.5;
  stroke: #ffff00;
  stroke-linecap:round;
  stroke-linejoin:round;
  stroke-width: 0.600742;
}
.l9{
  fill: #ffffff; fill-opacity: 0.5;
  stroke: #ffffff;
  stroke-linecap:round;
  stroke-linejoin:round;
  stroke-width: 0.600742;
}
.l10{
  fill: #ff00ff;
  stroke: #ff00ff;
  stroke-linecap:round;
  stroke-linejoin:round;
  stroke-width: 0.600742;
}
.l11{
  fill: #00ff00; fill-opacity: 0.5;
  stroke: #00ff00;
  stroke-linecap:round;
  stroke-linejoin:round;
  stroke-width: 0.600742;
}
.l12{
  fill: #0000ff; fill-opacity: 0.5;
  stroke: #0000ff;
  stroke-linecap:round;
  stroke-linejoin:round;
  stroke-width: 0.600742;
}
.l13{
  fill: #aaaa00; fill-opacity: 0.5;
  stroke: #aaaa00;
  stroke-linecap:round;
  stroke-linejoin:round;
  stroke-width: 0.600742;
}
.l14{
  fill: #aaccaa; fill-opacity: 0.2;
  stroke: #aaccaa;
  stroke-linecap:round;
  stroke-linejoin:round;
  stroke-width: 0.600742;
}
.l15{
  fill: #ff7777; fill-opacity: 0.5;
  stroke: #ff7777;
  stroke-linecap:round;
  stroke-linejoin:round;
  stroke-width: 0.600742;
}
.l16{
  fill: #bfff81; fill-opacity: 0.5;
  stroke: #bfff81;
  stroke-linecap:round;
  stroke-linejoin:round;
  stroke-width: 0.600742;
}
.l17{
  fill: #00ffcc; fill-opacity: 0.2;
  stroke: #00ffcc;
  stroke-linecap:round;
  stroke-linejoin:round;
  stroke-width: 0.600742;
}
.l18{
  fill: #ce0097; fill-opacity: 0.5;
  stroke: #ce0097;
  stroke-linecap:round;
  stroke-linejoin:round;
  stroke-width: 0.600742;
}
.l19{
  fill: #d2d46b; fill-opacity: 0.2;
  stroke: #d2d46b;
  stroke-linecap:round;
  stroke-linejoin:round;
  stroke-width: 0.600742;
}
.l20{
  fill: #ef6158; fill-opacity: 0.2;
  stroke: #ef6158;
  stroke-linecap:round;
  stroke-linejoin:round;
  stroke-width: 0.600742;
}
.l21{
  fill: #fdb200; fill-opacity: 0.2;
  stroke: #fdb200;
  stroke-linecap:round;
  stroke-linejoin:round;
  stroke-width: 0.600742;
}
text {font-family: Sans-Serif;}
</style>
<rect class="l0" x="0" y="0" width="1000" height="700"/>
<text fill="#00ccee"  xml:space="preserve" font-size="9.54512" transform="translate(36.2018, 293.143)" >IN</text>
<text fill="#00ccee"  xml:space="preserve" font-size="9.54512" transform="translate(18.5933, 375.713)" >VGND</text>
<text fill="#00ccee"  xml:space="preserve" font-size="9.54512" transform="translate(15.5933, 208.841)" >VDDIN</text>
<text fill="#00ccee"  xml:space="preserve" font-size="9.54512" transform="translate(712.997, 293.143)" >OUT</text>
<text fill="#00ccee"  xml:space="preserve" font-size="7.80964" transform="translate(313.893, 286.782)" >ctrl</text>
<text fill="#00ccee"  xml:space="preserve" font-size="7.80964" transform="translate(169.27, 286.782)" >ctrl_n</text>
<text fill="#00ccee"  xml:space="preserve" font-size="9.54512" transform="translate(394.963, 208.841)" >VDDOUT</text>
<text fill="#00ccee"  xml:space="preserve" font-size="7.80964" transform="translate(558.109, 320.156)" >ctrl_n</text>
<text fill="#00ccee"  xml:space="preserve" font-size="7.80964" transform="translate(454.86, 320.156)" >ctrl</text>
<text fill="#00ccee"  xml:space="preserve" font-size="7.80964" transform="translate(491.235, 286.782)" >p1</text>
<text fill="#cccccc"  xml:space="preserve" font-size="5.78492" transform="translate(95.9119, 311.283)" >M1</text>
<text fill="#ff0000"  xml:space="preserve" font-size="4.33869" transform="translate(113.646, 336.392)" >S</text>
<text fill="#ff0000"  xml:space="preserve" font-size="4.33869" transform="translate(113.646, 311.947)" >D</text>
<text fill="#ff0000"  xml:space="preserve" font-size="4.33869" transform="translate(112.256, 321.095)" >B</text>
<text fill="#ff0000"  xml:space="preserve" font-size="4.33869" transform="translate(92.5683, 321.095)" >G</text>
<text fill="#cccccc"  xml:space="preserve" font-size="5.78492" transform="translate(117.818, 316.468)" >nfet_01v8</text>
<text fill="#aaaa00"  xml:space="preserve" font-size="5.78492" transform="translate(118.513, 335.619)" >1 x 0.42 / 0.15</text>
<text fill="#aaaa00"  xml:space="preserve" font-size="5.78492" transform="translate(118.513, 328.666)" >nf=1</text>
<text fill="#cccccc"  xml:space="preserve" font-size="5.78492" transform="translate(95.9119, 244.534)" >M2</text>
<text fill="#ff0000"  xml:space="preserve" font-size="4.33869" transform="translate(113.646, 269.643)" >D</text>
<text fill="#ff0000"  xml:space="preserve" font-size="4.33869" transform="translate(113.646, 245.198)" >S</text>
<text fill="#ff0000"  xml:space="preserve" font-size="4.33869" transform="translate(112.256, 254.346)" >B</text>
<text fill="#ff0000"  xml:space="preserve" font-size="4.33869" transform="translate(92.5683, 254.346)" >G</text>
<text fill="#cccccc"  xml:space="preserve" font-size="5.78492" transform="translate(117.818, 249.719)" >pfet_01v8</text>
<text fill="#aaaa00"  xml:space="preserve" font-size="5.78492" transform="translate(118.513, 268.87)" >1 x 1 / 0.15</text>
<text fill="#aaaa00"  xml:space="preserve" font-size="5.78492" transform="translate(118.513, 261.917)" >nf=1</text>
<text fill="#cccccc"  xml:space="preserve" font-size="5.78492" transform="translate(223.848, 311.283)" >M3</text>
<text fill="#ff0000"  xml:space="preserve" font-size="4.33869" transform="translate(241.582, 336.392)" >S</text>
<text fill="#ff0000"  xml:space="preserve" font-size="4.33869" transform="translate(241.582, 311.947)" >D</text>
<text fill="#ff0000"  xml:space="preserve" font-size="4.33869" transform="translate(240.191, 321.095)" >B</text>
<text fill="#ff0000"  xml:space="preserve" font-size="4.33869" transform="translate(220.504, 321.095)" >G</text>
<text fill="#cccccc"  xml:space="preserve" font-size="5.78492" transform="translate(245.754, 316.468)" >nfet_01v8</text>
<text fill="#aaaa00"  xml:space="preserve" font-size="5.78492" transform="translate(246.449, 335.619)" >1 x 0.42 / 0.15</text>
<text fill="#aaaa00"  xml:space="preserve" font-size="5.78492" transform="translate(246.449, 328.666)" >nf=1</text>
<text fill="#cccccc"  xml:space="preserve" font-size="5.78492" transform="translate(222.848, 244.534)" >M4</text>
<text fill="#ff0000"  xml:space="preserve" font-size="4.33869" transform="translate(241.582, 269.643)" >D</text>
<text fill="#ff0000"  xml:space="preserve" font-size="4.33869" transform="translate(241.582, 245.198)" >S</text>
<text fill="#ff0000"  xml:space="preserve" font-size="4.33869" transform="translate(240.191, 254.346)" >B</text>
<text fill="#ff0000"  xml:space="preserve" font-size="4.33869" transform="translate(220.504, 254.346)" >G</text>
<text fill="#cccccc"  xml:space="preserve" font-size="5.78492" transform="translate(245.754, 249.719)" >pfet_01v8</text>
<text fill="#aaaa00"  xml:space="preserve" font-size="5.78492" transform="translate(246.449, 268.87)" >1 x 1 / 0.15</text>
<text fill="#aaaa00"  xml:space="preserve" font-size="5.78492" transform="translate(246.449, 261.917)" >nf=1</text>
<text fill="#cccccc"  xml:space="preserve" font-size="5.78492" transform="translate(596.53, 244.534)" >M5</text>
<text fill="#ff0000"  xml:space="preserve" font-size="4.33869" transform="translate(614.264, 269.643)" >D</text>
<text fill="#ff0000"  xml:space="preserve" font-size="4.33869" transform="translate(614.264, 245.198)" >S</text>
<text fill="#ff0000"  xml:space="preserve" font-size="4.33869" transform="translate(612.874, 254.346)" >B</text>
<text fill="#ff0000"  xml:space="preserve" font-size="4.33869" transform="translate(592.144, 254.346)" >G</text>
<text fill="#cccccc"  xml:space="preserve" font-size="5.78492" transform="translate(618.436, 249.719)" >pfet_g5v0d10v5</text>
<text fill="#aaaa00"  xml:space="preserve" font-size="5.78492" transform="translate(619.132, 268.87)" >1 x 0.42 / 0.5</text>
<text fill="#aaaa00"  xml:space="preserve" font-size="5.78492" transform="translate(619.132, 261.917)" >nf=1</text>
<text fill="#cccccc"  xml:space="preserve" font-size="5.78492" transform="translate(484.282, 311.283)" >M6</text>
<text fill="#ff0000"  xml:space="preserve" font-size="4.33869" transform="translate(503.016, 336.392)" >S</text>
<text fill="#ff0000"  xml:space="preserve" font-size="4.33869" transform="translate(503.016, 311.947)" >D</text>
<text fill="#ff0000"  xml:space="preserve" font-size="4.33869" transform="translate(501.625, 321.095)" >B</text>
<text fill="#ff0000"  xml:space="preserve" font-size="4.33869" transform="translate(481.938, 321.095)" >G</text>
<text fill="#cccccc"  xml:space="preserve" font-size="5.78492" transform="translate(507.188, 316.468)" >nfet_g5v0d10v5</text>
<text fill="#aaaa00"  xml:space="preserve" font-size="5.78492" transform="translate(507.883, 335.619)" >1 x 1 / 0.5</text>
<text fill="#aaaa00"  xml:space="preserve" font-size="5.78492" transform="translate(507.883, 328.666)" >nf=1</text>
<text fill="#cccccc"  xml:space="preserve" font-size="5.78492" transform="translate(509.969, 244.534)" >M7</text>
<text fill="#ff0000"  xml:space="preserve" font-size="4.33869" transform="translate(497.235, 269.643)" >D</text>
<text fill="#ff0000"  xml:space="preserve" font-size="4.33869" transform="translate(497.235, 245.198)" >S</text>
<text fill="#ff0000"  xml:space="preserve" font-size="4.33869" transform="translate(498.625, 254.346)" >B</text>
<text fill="#ff0000"  xml:space="preserve" font-size="4.33869" transform="translate(519.356, 254.346)" >G</text>
<text fill="#cccccc"  xml:space="preserve" font-size="5.78492" transform="translate(453.063, 249.719)" >pfet_g5v0d10v5</text>
<text fill="#aaaa00"  xml:space="preserve" font-size="5.78492" transform="translate(460.368, 268.87)" >1 x 0.42 / 0.5</text>
<text fill="#aaaa00"  xml:space="preserve" font-size="5.78492" transform="translate(483.368, 261.917)" >nf=1</text>
<text fill="#cccccc"  xml:space="preserve" font-size="5.78492" transform="translate(595.53, 311.283)" >M8</text>
<text fill="#ff0000"  xml:space="preserve" font-size="4.33869" transform="translate(614.264, 336.392)" >S</text>
<text fill="#ff0000"  xml:space="preserve" font-size="4.33869" transform="translate(614.264, 311.947)" >D</text>
<text fill="#ff0000"  xml:space="preserve" font-size="4.33869" transform="translate(612.874, 321.095)" >B</text>
<text fill="#ff0000"  xml:space="preserve" font-size="4.33869" transform="translate(593.187, 321.095)" >G</text>
<text fill="#cccccc"  xml:space="preserve" font-size="5.78492" transform="translate(618.436, 316.468)" >nfet_g5v0d10v5</text>
<text fill="#aaaa00"  xml:space="preserve" font-size="5.78492" transform="translate(619.132, 335.619)" >1 x 1 / 0.5</text>
<text fill="#aaaa00"  xml:space="preserve" font-size="5.78492" transform="translate(619.132, 328.666)" >nf=1</text>
<text fill="#cccccc"  xml:space="preserve" font-size="11.5698" transform="translate(265.222, 491.753)" >         /home/leo/Projects/tt08-aicd-playground/dependencies/sky130_leo_ip__levelshifter/xschem/sky130_leo_ip__levelshifter_up.sch</text>
<text fill="#cccccc"  xml:space="preserve" font-size="11.5698" transform="translate(265.222, 475.065)" >Leo Moser</text>
<text fill="#cccccc"  xml:space="preserve" font-size="11.5698" transform="translate(583.873, 475.065)" >2024-08-20  14:29:35</text>
<text fill="#cccccc"  xml:space="preserve" font-size="28.9246" transform="translate(137.286, 490.823)" >SCHEM</text>
<path class="l4" d="M105.303 310.203L105.303 335.234"/>
<path class="l4" d="M90.0058 322.718L102.521 322.718"/>
<path class="l4" d="M112.256 306.031L112.256 312.984"/>
<path class="l4" d="M112.256 332.452L112.256 339.405"/>
<path class="l4" d="M102.521 314.374L102.521 331.062"/>
<path class="l4" d="M105.303 312.984L112.256 312.984"/>
<path class="l4" d="M105.303 332.452L109.474 332.452"/>
<path class="l4" d="M109.474 331.062L112.256 332.452L109.474 333.843L109.474 331.062"/>
<path class="l4" d="M105.303 243.453L105.303 268.484"/>
<path class="l4" d="M112.256 239.282L112.256 246.235"/>
<path class="l4" d="M112.256 265.703L112.256 272.656"/>
<path class="l4" d="M102.521 247.625L102.521 264.313"/>
<path class="l4" d="M105.303 265.703L112.256 265.703"/>
<path class="l4" d="M108.084 246.235L112.256 246.235"/>
<path class="l4" d="M90.0058 255.969L96.9589 255.969"/>
<path class="l4" d="M108.084 244.844L105.303 246.235L108.084 247.625L108.084 244.844"/>
<circle class="l4" cx="99.7401" cy="255.969" r="2.78121" style="fill:none;" />
<path class="l4" d="M233.238 310.203L233.238 335.234"/>
<path class="l4" d="M217.942 322.718L230.457 322.718"/>
<path class="l4" d="M240.191 306.031L240.191 312.984"/>
<path class="l4" d="M240.191 332.452L240.191 339.405"/>
<path class="l4" d="M230.457 314.374L230.457 331.062"/>
<path class="l4" d="M233.238 312.984L240.191 312.984"/>
<path class="l4" d="M233.238 332.452L237.41 332.452"/>
<path class="l4" d="M237.41 331.062L240.191 332.452L237.41 333.843L237.41 331.062"/>
<path class="l4" d="M233.238 243.453L233.238 268.484"/>
<path class="l4" d="M240.191 239.282L240.191 246.235"/>
<path class="l4" d="M240.191 265.703L240.191 272.656"/>
<path class="l4" d="M230.457 247.625L230.457 264.313"/>
<path class="l4" d="M233.238 265.703L240.191 265.703"/>
<path class="l4" d="M236.02 246.235L240.191 246.235"/>
<path class="l4" d="M217.942 255.969L224.895 255.969"/>
<path class="l4" d="M236.02 244.844L233.238 246.235L236.02 247.625L236.02 244.844"/>
<circle class="l4" cx="227.676" cy="255.969" r="2.78121" style="fill:none;" />
<path class="l4" d="M612.874 239.282L612.874 246.235"/>
<path class="l4" d="M612.874 265.703L612.874 272.656"/>
<path class="l4" d="M605.921 265.703L612.874 265.703"/>
<path class="l4" d="M608.702 246.235L612.874 246.235"/>
<path class="l4" d="M590.624 255.969L594.796 255.969"/>
<path class="l4" d="M605.921 243.453L605.921 268.484"/>
<path class="l4" d="M608.702 244.844L605.921 246.235L608.702 247.625L608.702 244.844"/>
<path class="l4" style="fill:none;" d="M600.358 264.313L600.358 247.625L603.14 247.625L603.14 264.313L600.358 264.313"/>
<circle class="l4" cx="597.577" cy="255.969" r="2.78121" style="fill:none;" />
<path class="l4" d="M501.625 306.031L501.625 312.984"/>
<path class="l4" d="M501.625 332.452L501.625 339.405"/>
<path class="l4" d="M494.672 312.984L501.625 312.984"/>
<path class="l4" d="M494.672 332.452L498.844 332.452"/>
<path class="l4" d="M494.672 310.203L494.672 335.234"/>
<path class="l4" d="M479.376 322.718L489.11 322.718"/>
<path class="l4" d="M498.844 331.062L501.625 332.452L498.844 333.843L498.844 331.062"/>
<path class="l4" style="fill:none;" d="M489.11 331.062L489.11 314.374L491.891 314.374L491.891 331.062L489.11 331.062"/>
<path class="l4" d="M501.625 239.282L501.625 246.235"/>
<path class="l4" d="M501.625 265.703L501.625 272.656"/>
<path class="l4" d="M501.625 265.703L508.578 265.703"/>
<path class="l4" d="M501.625 246.235L505.797 246.235"/>
<path class="l4" d="M519.703 255.969L523.875 255.969"/>
<path class="l4" d="M508.578 243.453L508.578 268.484"/>
<path class="l4" d="M505.797 244.844L508.578 246.235L505.797 247.625L505.797 244.844"/>
<path class="l4" style="fill:none;" d="M514.141 264.313L514.141 247.625L511.36 247.625L511.36 264.313L514.141 264.313"/>
<circle class="l4" cx="516.922" cy="255.969" r="2.78121" style="fill:none;" />
<path class="l4" d="M612.874 306.031L612.874 312.984"/>
<path class="l4" d="M612.874 332.452L612.874 339.405"/>
<path class="l4" d="M605.921 312.984L612.874 312.984"/>
<path class="l4" d="M605.921 332.452L610.093 332.452"/>
<path class="l4" d="M605.921 310.203L605.921 335.234"/>
<path class="l4" d="M590.624 322.718L600.358 322.718"/>
<path class="l4" d="M610.093 331.062L612.874 332.452L610.093 333.843L610.093 331.062"/>
<path class="l4" style="fill:none;" d="M600.358 331.062L600.358 314.374L603.14 314.374L603.14 331.062L600.358 331.062"/>
<path class="l5" d="M53.8501 289.343L56.6313 289.343"/>
<path class="l5" d="M53.8501 289.343L51.7642 286.562L46.8971 286.562L48.983 289.343L46.8971 292.125L51.7642 292.125L53.8501 289.343"/>
<path class="l5" d="M55.936 288.648L57.3266 288.648L57.3266 290.039L55.936 290.039L55.936 288.648z"/>
<path class="l5" d="M54.893 372.78L56.6313 372.78"/>
<path class="l5" d="M48.983 369.999L46.8971 372.78L48.983 375.561L52.8071 375.561L54.893 372.78L52.8071 369.999L48.983 369.999"/>
<path class="l5" d="M55.936 372.085L57.3266 372.085L57.3266 373.475L55.936 373.475L55.936 372.085z"/>
<path class="l5" d="M54.893 205.907L56.6313 205.907"/>
<path class="l5" d="M48.983 203.126L46.8971 205.907L48.983 208.688L52.8071 208.688L54.893 205.907L52.8071 203.126L48.983 203.126"/>
<path class="l5" d="M55.936 205.212L57.3266 205.212L57.3266 206.602L55.936 206.602L55.936 205.212z"/>
<path class="l5" d="M701.873 289.343L706.74 289.343"/>
<path class="l5" d="M711.607 289.343L709.521 286.562L704.654 286.562L706.74 289.343L704.654 292.125L709.521 292.125L711.607 289.343"/>
<path class="l5" d="M701.177 288.648L702.568 288.648L702.568 290.039L701.177 290.039L701.177 288.648z"/>
<path class="l5" d="M112.256 321.327L109.474 322.718L112.256 324.109L112.256 321.327"/>
<path class="l5" d="M110.865 304.64L113.646 304.64L113.646 307.421L110.865 307.421L110.865 304.64z"/>
<path class="l5" d="M88.6152 321.327L91.3965 321.327L91.3965 324.109L88.6152 324.109L88.6152 321.327z"/>
<path class="l5" d="M110.865 338.015L113.646 338.015L113.646 340.796L110.865 340.796L110.865 338.015z"/>
<path class="l5" d="M112.212 322.675L112.299 322.675L112.299 322.762L112.212 322.762L112.212 322.675z"/>
<path class="l5" d="M109.474 254.578L112.256 255.969L109.474 257.36L109.474 254.578"/>
<path class="l5" d="M110.865 271.266L113.646 271.266L113.646 274.047L110.865 274.047L110.865 271.266z"/>
<path class="l5" d="M88.6152 254.578L91.3965 254.578L91.3965 257.36L88.6152 257.36L88.6152 254.578z"/>
<path class="l5" d="M110.865 237.891L113.646 237.891L113.646 240.672L110.865 240.672L110.865 237.891z"/>
<path class="l5" d="M112.212 255.925L112.299 255.925L112.299 256.012L112.212 256.012L112.212 255.925z"/>
<path class="l5" d="M240.191 321.327L237.41 322.718L240.191 324.109L240.191 321.327"/>
<path class="l5" d="M238.801 304.64L241.582 304.64L241.582 307.421L238.801 307.421L238.801 304.64z"/>
<path class="l5" d="M216.551 321.327L219.332 321.327L219.332 324.109L216.551 324.109L216.551 321.327z"/>
<path class="l5" d="M238.801 338.015L241.582 338.015L241.582 340.796L238.801 340.796L238.801 338.015z"/>
<path class="l5" d="M240.148 322.675L240.235 322.675L240.235 322.762L240.148 322.762L240.148 322.675z"/>
<path class="l5" d="M237.41 254.578L240.191 255.969L237.41 257.36L237.41 254.578"/>
<path class="l5" d="M238.801 271.266L241.582 271.266L241.582 274.047L238.801 274.047L238.801 271.266z"/>
<path class="l5" d="M216.551 254.578L219.332 254.578L219.332 257.36L216.551 257.36L216.551 254.578z"/>
<path class="l5" d="M238.801 237.891L241.582 237.891L241.582 240.672L238.801 240.672L238.801 237.891z"/>
<path class="l5" d="M240.148 255.925L240.235 255.925L240.235 256.012L240.148 256.012L240.148 255.925z"/>
<path class="l5" d="M311.808 288.648L313.198 288.648L313.198 290.039L311.808 290.039L311.808 288.648z"/>
<path class="l5" d="M167.184 288.648L168.575 288.648L168.575 290.039L167.184 290.039L167.184 288.648z"/>
<path class="l5" d="M444.263 205.907L446.001 205.907"/>
<path class="l5" d="M438.353 203.126L436.267 205.907L438.353 208.688L442.177 208.688L444.263 205.907L442.177 203.126L438.353 203.126"/>
<path class="l5" d="M445.306 205.212L446.696 205.212L446.696 206.602L445.306 206.602L445.306 205.212z"/>
<path class="l5" d="M610.093 254.578L612.874 255.969L610.093 257.36L610.093 254.578"/>
<path class="l5" d="M611.483 271.266L614.264 271.266L614.264 274.047L611.483 274.047L611.483 271.266z"/>
<path class="l5" d="M589.233 254.578L592.015 254.578L592.015 257.36L589.233 257.36L589.233 254.578z"/>
<path class="l5" d="M611.483 237.891L614.264 237.891L614.264 240.672L611.483 240.672L611.483 237.891z"/>
<path class="l5" d="M612.83 255.925L612.917 255.925L612.917 256.012L612.83 256.012L612.83 255.925z"/>
<path class="l5" d="M501.625 321.327L498.844 322.718L501.625 324.109L501.625 321.327"/>
<path class="l5" d="M500.235 304.64L503.016 304.64L503.016 307.421L500.235 307.421L500.235 304.64z"/>
<path class="l5" d="M477.985 321.327L480.766 321.327L480.766 324.109L477.985 324.109L477.985 321.327z"/>
<path class="l5" d="M500.235 338.015L503.016 338.015L503.016 340.796L500.235 340.796L500.235 338.015z"/>
<path class="l5" d="M501.582 322.675L501.669 322.675L501.669 322.762L501.582 322.762L501.582 322.675z"/>
<path class="l5" d="M504.406 254.578L501.625 255.969L504.406 257.36L504.406 254.578"/>
<path class="l5" d="M500.235 271.266L503.016 271.266L503.016 274.047L500.235 274.047L500.235 271.266z"/>
<path class="l5" d="M522.484 254.578L525.266 254.578L525.266 257.36L522.484 257.36L522.484 254.578z"/>
<path class="l5" d="M500.235 237.891L503.016 237.891L503.016 240.672L500.235 240.672L500.235 237.891z"/>
<path class="l5" d="M501.582 255.925L501.669 255.925L501.669 256.012L501.582 256.012L501.582 255.925z"/>
<path class="l5" d="M612.874 321.327L610.093 322.718L612.874 324.109L612.874 321.327"/>
<path class="l5" d="M611.483 304.64L614.264 304.64L614.264 307.421L611.483 307.421L611.483 304.64z"/>
<path class="l5" d="M589.233 321.327L592.015 321.327L592.015 324.109L589.233 324.109L589.233 321.327z"/>
<path class="l5" d="M611.483 338.015L614.264 338.015L614.264 340.796L611.483 340.796L611.483 338.015z"/>
<path class="l5" d="M612.83 322.675L612.917 322.675L612.917 322.762L612.83 322.762L612.83 322.675z"/>
<path class="l5" d="M578.804 322.023L580.195 322.023L580.195 323.413L578.804 323.413L578.804 322.023z"/>
<path class="l5" d="M467.555 322.023L468.946 322.023L468.946 323.413L467.555 323.413L467.555 322.023z"/>
<path class="l5" d="M128.943 470.122L128.769 470.296L128.595 470.47L128.421 470.644L128.248 470.818L128.074 470.991L127.9 471.165L127.726 471.339L127.552 471.513L127.378 471.687L127.205 471.861L127.031 472.034L126.857 472.208L126.683 472.382L126.509 472.556L126.335 472.73L126.162 472.904L125.988 473.077L125.814 473.251L125.64 473.425L125.466 473.599L125.292 473.773L125.119 473.946L124.945 474.12L124.771 474.294L124.597 474.468L124.423 474.642L124.25 474.816L124.076 474.989L123.902 475.163L123.728 475.337L123.554 475.511L123.38 475.685L123.38 475.685L123.212 475.859L123.054 476.032L122.908 476.206L122.772 476.38L122.647 476.554L122.533 476.728L122.43 476.902L122.337 477.075L122.256 477.249L122.185 477.423L122.126 477.597L122.077 477.771L122.039 477.944L122.012 478.118L121.995 478.292L121.99 478.466L121.995 478.64L122.012 478.814L122.039 478.987L122.077 479.161L122.126 479.335L122.185 479.509L122.256 479.683L122.337 479.857L122.43 480.03L122.533 480.204L122.647 480.378L122.772 480.552L122.908 480.726L123.054 480.899L123.212 481.073L123.38 481.247L123.38 481.247L123.555 481.422L123.731 481.598L123.908 481.775L124.087 481.953L124.267 482.133L124.448 482.315L124.63 482.497L124.814 482.681L125 482.867L125.187 483.053L125.375 483.241L125.564 483.431L125.755 483.622L125.947 483.814L126.141 484.007L126.335 484.202L126.532 484.398L126.729 484.596L126.928 484.795L127.129 484.995L127.33 485.197L127.533 485.4L127.738 485.604L127.943 485.81L128.15 486.017L128.359 486.226L128.569 486.435L128.78 486.647L128.992 486.859L129.206 487.073L129.422 487.288L129.638 487.505L129.638 487.505L129.854 487.721L130.067 487.934L130.278 488.145L130.486 488.352L130.691 488.557L130.893 488.76L131.093 488.959L131.289 489.156L131.484 489.35L131.675 489.542L131.864 489.731L132.05 489.917L132.233 490.1L132.414 490.281L132.592 490.459L132.767 490.634L132.939 490.806L133.109 490.976L133.276 491.143L133.441 491.307L133.602 491.469L133.761 491.628L133.917 491.784L134.071 491.937L134.221 492.088L134.369 492.236L134.515 492.382L134.657 492.524L134.797 492.664L134.934 492.801L135.069 492.936L135.201 493.067L135.201 493.067L135.327 493.196L135.445 493.32L135.555 493.44L135.657 493.556L135.751 493.668L135.836 493.776L135.914 493.88L135.983 493.98L136.044 494.076L136.097 494.167L136.142 494.255L136.178 494.338L136.207 494.418L136.227 494.493L136.239 494.565L136.244 494.632L136.239 494.695L136.227 494.754L136.207 494.809L136.178 494.86L136.142 494.907L136.097 494.95L136.044 494.988L135.983 495.023L135.914 495.053L135.836 495.08L135.751 495.102L135.657 495.121L135.555 495.135L135.445 495.145L135.327 495.151L135.201 495.153L135.201 495.153L135.07 495.153L134.94 495.153L134.809 495.153L134.679 495.153L134.549 495.153L134.418 495.153L134.288 495.153L134.158 495.153L134.027 495.153L133.897 495.153L133.766 495.153L133.636 495.153L133.506 495.153L133.375 495.153L133.245 495.153L133.115 495.153L132.984 495.153L132.854 495.153L132.724 495.153L132.593 495.153L132.463 495.153L132.332 495.153L132.202 495.153L132.072 495.153L131.941 495.153L131.811 495.153L131.681 495.153L131.55 495.153L131.42 495.153L131.289 495.153L131.159 495.153L131.029 495.153L131.029 495.153L130.899 495.153L130.771 495.153L130.644 495.153L130.518 495.153L130.394 495.153L130.271 495.153L130.149 495.153L130.029 495.153L129.91 495.153L129.793 495.153L129.677 495.153L129.562 495.153L129.449 495.153L129.337 495.153L129.226 495.153L129.117 495.153L129.009 495.153L128.902 495.153L128.797 495.153L128.693 495.153L128.59 495.153L128.489 495.153L128.389 495.153L128.291 495.153L128.194 495.153L128.098 495.153L128.004 495.153L127.911 495.153L127.819 495.153L127.729 495.153L127.64 495.153L127.552 495.153L127.552 495.153L127.465 495.152L127.378 495.148L127.291 495.141L127.205 495.131L127.118 495.119L127.031 495.104L126.944 495.087L126.857 495.066L126.77 495.043L126.683 495.017L126.596 494.989L126.509 494.958L126.422 494.924L126.335 494.887L126.249 494.848L126.162 494.806L126.075 494.761L125.988 494.713L125.901 494.663L125.814 494.61L125.727 494.554L125.64 494.496L125.553 494.435L125.466 494.371L125.379 494.304L125.292 494.235L125.206 494.163L125.119 494.089L125.032 494.011L124.945 493.931L124.858 493.848L124.771 493.763L124.771 493.763L124.684 493.676L124.597 493.589L124.51 493.502L124.423 493.415L124.336 493.328L124.25 493.241L124.163 493.154L124.076 493.067L123.989 492.98L123.902 492.893L123.815 492.807L123.728 492.72L123.641 492.633L123.554 492.546L123.467 492.459L123.38 492.372L123.293 492.285L123.207 492.198L123.12 492.111L123.033 492.024L122.946 491.937L122.859 491.851L122.772 491.764L122.685 491.677L122.598 491.59L122.511 491.503L122.424 491.416L122.337 491.329L122.251 491.242L122.164 491.155L122.077 491.068L121.99 490.981L121.99 490.981L121.902 490.893L121.811 490.802L121.717 490.708L121.62 490.612L121.521 490.513L121.419 490.411L121.315 490.306L121.208 490.199L121.098 490.089L120.985 489.976L120.869 489.861L120.751 489.743L120.63 489.622L120.507 489.498L120.381 489.372L120.252 489.243L120.12 489.111L119.985 488.977L119.848 488.84L119.708 488.7L119.566 488.557L119.42 488.412L119.272 488.264L119.122 488.113L118.968 487.96L118.812 487.804L118.653 487.645L118.492 487.483L118.327 487.319L118.16 487.152L117.99 486.982L117.818 486.81L117.818 486.81L117.644 486.641L117.47 486.484L117.296 486.337L117.123 486.201L116.949 486.076L116.775 485.962L116.601 485.859L116.427 485.767L116.254 485.685L116.08 485.615L115.906 485.555L115.732 485.506L115.558 485.468L115.384 485.441L115.211 485.424L115.037 485.419L114.863 485.424L114.689 485.441L114.515 485.468L114.341 485.506L114.168 485.555L113.994 485.615L113.82 485.685L113.646 485.767L113.472 485.859L113.299 485.962L113.125 486.076L112.951 486.201L112.777 486.337L112.603 486.484L112.429 486.641L112.256 486.81L112.256 486.81L112.083 486.982L111.913 487.152L111.746 487.319L111.582 487.483L111.42 487.645L111.261 487.804L111.105 487.96L110.952 488.113L110.801 488.264L110.653 488.412L110.508 488.557L110.365 488.7L110.225 488.84L110.088 488.977L109.954 489.111L109.822 489.243L109.693 489.372L109.567 489.498L109.443 489.622L109.322 489.743L109.204 489.861L109.089 489.976L108.976 490.089L108.866 490.199L108.759 490.306L108.654 490.411L108.552 490.513L108.453 490.612L108.357 490.708L108.263 490.802L108.172 490.893L108.084 490.981L108.084 490.981L107.997 491.068L107.91 491.155L107.823 491.242L107.736 491.329L107.649 491.416L107.562 491.503L107.475 491.59L107.388 491.677L107.302 491.764L107.215 491.851L107.128 491.937L107.041 492.024L106.954 492.111L106.867 492.198L106.78 492.285L106.693 492.372L106.606 492.459L106.519 492.546L106.432 492.633L106.345 492.72L106.259 492.807L106.172 492.893L106.085 492.98L105.998 493.067L105.911 493.154L105.824 493.241L105.737 493.328L105.65 493.415L105.563 493.502L105.476 493.589L105.389 493.676L105.303 493.763L105.303 493.763L105.216 493.848L105.129 493.931L105.042 494.011L104.955 494.089L104.868 494.163L104.781 494.235L104.694 494.304L104.607 494.371L104.52 494.435L104.433 494.496L104.346 494.554L104.26 494.61L104.173 494.663L104.086 494.713L103.999 494.761L103.912 494.806L103.825 494.848L103.738 494.887L103.651 494.924L103.564 494.958L103.477 494.989L103.39 495.017L103.304 495.043L103.217 495.066L103.13 495.087L103.043 495.104L102.956 495.119L102.869 495.131L102.782 495.141L102.695 495.148L102.608 495.152L102.521 495.153L102.521 495.153L102.434 495.153L102.345 495.153L102.254 495.153L102.163 495.153L102.07 495.153L101.975 495.153L101.88 495.153L101.783 495.153L101.684 495.153L101.584 495.153L101.483 495.153L101.381 495.153L101.277 495.153L101.171 495.153L101.065 495.153L100.957 495.153L100.848 495.153L100.737 495.153L100.625 495.153L100.511 495.153L100.397 495.153L100.281 495.153L100.163 495.153L100.044 495.153L99.9241 495.153L99.8026 495.153L99.6797 495.153L99.5554 495.153L99.4298 495.153L99.3028 495.153L99.1745 495.153L99.0448 495.153L99.0448 495.153L98.9144 495.153L98.7841 495.153L98.6537 495.153L98.5233 495.153L98.3929 495.153L98.2626 495.153L98.1322 495.153L98.0018 495.153L97.8715 495.153L97.7411 495.153L97.6107 495.153L97.4804 495.153L97.35 495.153L97.2196 495.153L97.0893 495.153L96.9589 495.153L96.8285 495.153L96.6981 495.153L96.5678 495.153L96.4374 495.153L96.307 495.153L96.1767 495.153L96.0463 495.153L95.9159 495.153L95.7856 495.153L95.6552 495.153L95.5248 495.153L95.3944 495.153L95.2641 495.153L95.1337 495.153L95.0033 495.153L94.873 495.153L94.873 495.153L94.7467 495.151L94.6285 495.145L94.5185 495.135L94.4167 495.121L94.323 495.102L94.2374 495.08L94.16 495.053L94.0908 495.023L94.0296 494.988L93.9767 494.95L93.9319 494.907L93.8952 494.86L93.8667 494.809L93.8463 494.754L93.8341 494.695L93.83 494.632L93.8341 494.565L93.8463 494.493L93.8667 494.418L93.8952 494.338L93.9319 494.255L93.9767 494.167L94.0296 494.076L94.0908 493.98L94.16 493.88L94.2374 493.776L94.323 493.668L94.4167 493.556L94.5185 493.44L94.6285 493.32L94.7467 493.196L94.873 493.067L94.873 493.067L95.0047 492.936L95.1391 492.801L95.2763 492.664L95.4162 492.524L95.5588 492.382L95.7041 492.236L95.8521 492.088L96.0028 491.937L96.1563 491.784L96.3125 491.628L96.4714 491.469L96.633 491.307L96.7973 491.143L96.9643 490.976L97.1341 490.806L97.3065 490.634L97.4817 490.459L97.6596 490.281L97.8402 490.1L98.0236 489.917L98.2096 489.731L98.3984 489.542L98.5899 489.35L98.7841 489.156L98.981 488.959L99.1806 488.76L99.3829 488.557L99.588 488.352L99.7958 488.145L100.006 487.934L100.219 487.721L100.435 487.505L100.435 487.505L100.652 487.288L100.867 487.073L101.081 486.859L101.294 486.647L101.505 486.435L101.715 486.226L101.923 486.017L102.13 485.81L102.336 485.604L102.54 485.4L102.743 485.197L102.945 484.995L103.145 484.795L103.344 484.596L103.542 484.398L103.738 484.202L103.933 484.007L104.126 483.814L104.319 483.622L104.509 483.431L104.699 483.241L104.887 483.053L105.074 482.867L105.259 482.681L105.443 482.497L105.626 482.315L105.807 482.133L105.987 481.953L106.166 481.775L106.343 481.598L106.519 481.422L106.693 481.247L106.693 481.247L106.862 481.073L107.019 480.899L107.166 480.726L107.302 480.552L107.426 480.378L107.541 480.204L107.644 480.03L107.736 479.857L107.818 479.683L107.888 479.509L107.948 479.335L107.997 479.161L108.035 478.987L108.062 478.814L108.078 478.64L108.084 478.466L108.078 478.292L108.062 478.118L108.035 477.944L107.997 477.771L107.948 477.597L107.888 477.423L107.818 477.249L107.736 477.075L107.644 476.902L107.541 476.728L107.426 476.554L107.302 476.38L107.166 476.206L107.019 476.032L106.862 475.859L106.693 475.685L106.693 475.685L106.519 475.51L106.343 475.334L106.166 475.157L105.987 474.979L105.807 474.799L105.626 474.617L105.443 474.435L105.259 474.251L105.074 474.065L104.887 473.879L104.699 473.69L104.509 473.501L104.319 473.31L104.126 473.118L103.933 472.925L103.738 472.73L103.542 472.533L103.344 472.336L103.145 472.137L102.945 471.937L102.743 471.735L102.54 471.532L102.336 471.328L102.13 471.122L101.923 470.915L101.715 470.706L101.505 470.496L101.294 470.285L101.081 470.073L100.867 469.859L100.652 469.644L100.435 469.427L100.435 469.427L100.219 469.211L100.006 468.998L99.7958 468.787L99.588 468.58L99.3829 468.375L99.1806 468.172L98.981 467.973L98.7841 467.776L98.5899 467.581L98.3984 467.39L98.2096 467.201L98.0236 467.015L97.8402 466.832L97.6596 466.651L97.4817 466.473L97.3065 466.298L97.1341 466.126L96.9643 465.956L96.7973 465.789L96.633 465.625L96.4714 465.463L96.3125 465.304L96.1563 465.148L96.0028 464.994L95.8521 464.844L95.7041 464.696L95.5588 464.55L95.4162 464.408L95.2763 464.268L95.1391 464.131L95.0047 463.996L94.873 463.865L94.873 463.865L94.7467 463.736L94.6285 463.612L94.5185 463.492L94.4167 463.376L94.323 463.264L94.2374 463.156L94.16 463.052L94.0908 462.952L94.0296 462.856L93.9767 462.765L93.9319 462.677L93.8952 462.593L93.8667 462.514L93.8463 462.439L93.8341 462.367L93.83 462.3L93.8341 462.237L93.8463 462.178L93.8667 462.123L93.8952 462.072L93.9319 462.025L93.9767 461.982L94.0296 461.944L94.0908 461.909L94.16 461.878L94.2374 461.852L94.323 461.83L94.4167 461.811L94.5185 461.797L94.6285 461.787L94.7467 461.781L94.873 461.779L94.873 461.779L95.0033 461.779L95.1337 461.779L95.2641 461.779L95.3944 461.779L95.5248 461.779L95.6552 461.779L95.7856 461.779L95.9159 461.779L96.0463 461.779L96.1767 461.779L96.307 461.779L96.4374 461.779L96.5678 461.779L96.6981 461.779L96.8285 461.779L96.9589 461.779L97.0893 461.779L97.2196 461.779L97.35 461.779L97.4804 461.779L97.6107 461.779L97.7411 461.779L97.8715 461.779L98.0018 461.779L98.1322 461.779L98.2626 461.779L98.3929 461.779L98.5233 461.779L98.6537 461.779L98.7841 461.779L98.9144 461.779L99.0448 461.779L99.0448 461.779L99.1745 461.779L99.3028 461.779L99.4298 461.779L99.5554 461.779L99.6797 461.779L99.8026 461.779L99.9241 461.779L100.044 461.779L100.163 461.779L100.281 461.779L100.397 461.779L100.511 461.779L100.625 461.779L100.737 461.779L100.848 461.779L100.957 461.779L101.065 461.779L101.171 461.779L101.277 461.779L101.381 461.779L101.483 461.779L101.584 461.779L101.684 461.779L101.783 461.779L101.88 461.779L101.975 461.779L102.07 461.779L102.163 461.779L102.254 461.779L102.345 461.779L102.434 461.779L102.521 461.779L102.521 461.779L102.608 461.78L102.695 461.784L102.782 461.791L102.869 461.8L102.956 461.813L103.043 461.828L103.13 461.845L103.217 461.866L103.304 461.889L103.39 461.914L103.477 461.943L103.564 461.974L103.651 462.008L103.738 462.045L103.825 462.084L103.912 462.126L103.999 462.171L104.086 462.219L104.173 462.269L104.26 462.322L104.346 462.378L104.433 462.436L104.52 462.497L104.607 462.561L104.694 462.627L104.781 462.697L104.868 462.769L104.955 462.843L105.042 462.921L105.129 463.001L105.216 463.084L105.303 463.169L105.303 463.169L105.389 463.256L105.476 463.343L105.563 463.43L105.65 463.517L105.737 463.604L105.824 463.691L105.911 463.778L105.998 463.865L106.085 463.951L106.172 464.038L106.259 464.125L106.345 464.212L106.432 464.299L106.519 464.386L106.606 464.473L106.693 464.56L106.78 464.647L106.867 464.734L106.954 464.821L107.041 464.908L107.128 464.994L107.215 465.081L107.302 465.168L107.388 465.255L107.475 465.342L107.562 465.429L107.649 465.516L107.736 465.603L107.823 465.69L107.91 465.777L107.997 465.864L108.084 465.95L108.084 465.95L108.172 466.039L108.263 466.13L108.357 466.223L108.453 466.32L108.552 466.419L108.654 466.521L108.759 466.625L108.866 466.733L108.976 466.843L109.089 466.955L109.204 467.071L109.322 467.189L109.443 467.31L109.567 467.433L109.693 467.56L109.822 467.689L109.954 467.82L110.088 467.955L110.225 468.092L110.365 468.232L110.508 468.375L110.653 468.52L110.801 468.668L110.952 468.819L111.105 468.972L111.261 469.128L111.42 469.287L111.582 469.449L111.746 469.613L111.913 469.78L112.083 469.95L112.256 470.122L112.256 470.122L112.429 470.291L112.603 470.448L112.777 470.595L112.951 470.731L113.125 470.856L113.299 470.97L113.472 471.073L113.646 471.165L113.82 471.247L113.994 471.317L114.168 471.377L114.341 471.426L114.515 471.464L114.689 471.491L114.863 471.507L115.037 471.513L115.211 471.507L115.384 471.491L115.558 471.464L115.732 471.426L115.906 471.377L116.08 471.317L116.254 471.247L116.427 471.165L116.601 471.073L116.775 470.97L116.949 470.856L117.123 470.731L117.296 470.595L117.47 470.448L117.644 470.291L117.818 470.122L117.818 470.122L117.99 469.95L118.16 469.78L118.327 469.613L118.492 469.449L118.653 469.287L118.812 469.128L118.968 468.972L119.122 468.819L119.272 468.668L119.42 468.52L119.566 468.375L119.708 468.232L119.848 468.092L119.985 467.955L120.12 467.82L120.252 467.689L120.381 467.56L120.507 467.433L120.63 467.31L120.751 467.189L120.869 467.071L120.985 466.955L121.098 466.843L121.208 466.733L121.315 466.625L121.419 466.521L121.521 466.419L121.62 466.32L121.717 466.223L121.811 466.13L121.902 466.039L121.99 465.95L121.99 465.95L122.077 465.864L122.164 465.777L122.251 465.69L122.337 465.603L122.424 465.516L122.511 465.429L122.598 465.342L122.685 465.255L122.772 465.168L122.859 465.081L122.946 464.994L123.033 464.908L123.12 464.821L123.207 464.734L123.293 464.647L123.38 464.56L123.467 464.473L123.554 464.386L123.641 464.299L123.728 464.212L123.815 464.125L123.902 464.038L123.989 463.951L124.076 463.865L124.163 463.778L124.25 463.691L124.336 463.604L124.423 463.517L124.51 463.43L124.597 463.343L124.684 463.256L124.771 463.169L124.771 463.169L124.858 463.084L124.945 463.001L125.032 462.921L125.119 462.843L125.206 462.769L125.292 462.697L125.379 462.627L125.466 462.561L125.553 462.497L125.64 462.436L125.727 462.378L125.814 462.322L125.901 462.269L125.988 462.219L126.075 462.171L126.162 462.126L126.249 462.084L126.335 462.045L126.422 462.008L126.509 461.974L126.596 461.943L126.683 461.914L126.77 461.889L126.857 461.866L126.944 461.845L127.031 461.828L127.118 461.813L127.205 461.8L127.291 461.791L127.378 461.784L127.465 461.78L127.552 461.779L127.552 461.779L127.64 461.779L127.729 461.779L127.819 461.779L127.911 461.779L128.004 461.779L128.098 461.779L128.194 461.779L128.291 461.779L128.389 461.779L128.489 461.779L128.59 461.779L128.693 461.779L128.797 461.779L128.902 461.779L129.009 461.779L129.117 461.779L129.226 461.779L129.337 461.779L129.449 461.779L129.562 461.779L129.677 461.779L129.793 461.779L129.91 461.779L130.029 461.779L130.149 461.779L130.271 461.779L130.394 461.779L130.518 461.779L130.644 461.779L130.771 461.779L130.899 461.779L131.029 461.779L131.029 461.779L131.159 461.779L131.289 461.779L131.42 461.779L131.55 461.779L131.681 461.779L131.811 461.779L131.941 461.779L132.072 461.779L132.202 461.779L132.332 461.779L132.463 461.779L132.593 461.779L132.724 461.779L132.854 461.779L132.984 461.779L133.115 461.779L133.245 461.779L133.375 461.779L133.506 461.779L133.636 461.779L133.766 461.779L133.897 461.779L134.027 461.779L134.158 461.779L134.288 461.779L134.418 461.779L134.549 461.779L134.679 461.779L134.809 461.779L134.94 461.779L135.07 461.779L135.201 461.779L135.201 461.779L135.327 461.781L135.445 461.787L135.555 461.797L135.657 461.811L135.751 461.83L135.836 461.852L135.914 461.878L135.983 461.909L136.044 461.944L136.097 461.982L136.142 462.025L136.178 462.072L136.207 462.123L136.227 462.178L136.239 462.237L136.244 462.3L136.239 462.367L136.227 462.439L136.207 462.514L136.178 462.593L136.142 462.677L136.097 462.765L136.044 462.856L135.983 462.952L135.914 463.052L135.836 463.156L135.751 463.264L135.657 463.376L135.555 463.492L135.445 463.612L135.327 463.736L135.201 463.865L135.201 463.865L135.068 463.997L134.932 464.133L134.791 464.274L134.646 464.419L134.498 464.567L134.345 464.72L134.188 464.877L134.027 465.038L133.862 465.203L133.693 465.372L133.52 465.545L133.343 465.722L133.161 465.904L132.976 466.089L132.787 466.278L132.593 466.472L132.396 466.67L132.194 466.871L131.988 467.077L131.778 467.287L131.564 467.501L131.347 467.719L131.124 467.941L130.898 468.167L130.668 468.397L130.434 468.631L130.196 468.87L129.953 469.112L129.707 469.358L129.456 469.609L129.202 469.864L128.943 470.122"/>
<path class="l5" d="M500.93 288.648L502.321 288.648L502.321 290.039L500.93 290.039L500.93 288.648z"/>
<path class="l6" d="M259.66 478.466L701.873 478.466"/>
<path class="l6" d="M45.5065 478.466L81.6622 478.466"/>
<path class="l1" d="M112.256 205.907L112.256 239.282"/>
<path class="l1" d="M112.256 339.405L112.256 372.78"/>
<path class="l1" d="M112.256 272.656L112.256 306.031"/>
<path class="l1" d="M56.6313 205.907L312.503 205.907"/>
<path class="l1" d="M56.6313 372.78L312.503 372.78"/>
<path class="l1" d="M56.6313 289.343L78.881 289.343"/>
<path class="l1" d="M78.881 255.969L78.881 289.343"/>
<path class="l1" d="M78.881 255.969L90.0058 255.969"/>
<path class="l1" d="M78.881 289.343L78.881 322.718"/>
<path class="l1" d="M78.881 322.718L90.0058 322.718"/>
<path class="l1" d="M112.256 239.282L112.256 255.969"/>
<path class="l1" d="M112.256 322.718L112.256 339.405"/>
<path class="l1" d="M112.256 289.343L184.567 289.343"/>
<path class="l1" d="M240.191 205.907L240.191 239.282"/>
<path class="l1" d="M240.191 339.405L240.191 372.78"/>
<path class="l1" d="M240.191 272.656L240.191 306.031"/>
<path class="l1" d="M184.567 289.343L206.817 289.343"/>
<path class="l1" d="M206.817 255.969L206.817 289.343"/>
<path class="l1" d="M206.817 255.969L217.942 255.969"/>
<path class="l1" d="M206.817 289.343L206.817 322.718"/>
<path class="l1" d="M206.817 322.718L217.942 322.718"/>
<path class="l1" d="M240.191 239.282L240.191 255.969"/>
<path class="l1" d="M240.191 322.718L240.191 339.405"/>
<path class="l1" d="M240.191 289.343L312.503 289.343"/>
<path class="l1" d="M446.001 205.907L701.873 205.907"/>
<path class="l1" d="M612.874 205.907L612.874 239.282"/>
<path class="l1" d="M501.625 205.907L501.625 239.282"/>
<path class="l1" d="M501.625 239.282L501.625 255.969"/>
<path class="l1" d="M612.874 239.282L612.874 255.969"/>
<path class="l1" d="M501.625 272.656L501.625 306.031"/>
<path class="l1" d="M612.874 272.656L612.874 306.031"/>
<path class="l1" d="M468.251 322.718L479.376 322.718"/>
<path class="l1" d="M579.499 322.718L590.624 322.718"/>
<path class="l1" d="M573.937 255.969L590.624 255.969"/>
<path class="l1" d="M523.875 255.969L540.562 255.969"/>
<path class="l1" d="M312.503 372.78L701.873 372.78"/>
<path class="l1" d="M501.625 339.405L501.625 372.78"/>
<path class="l1" d="M612.874 339.405L612.874 372.78"/>
<path class="l1" d="M612.874 322.718L612.874 339.405"/>
<path class="l1" d="M501.625 322.718L501.625 339.405"/>
<path class="l1" d="M612.874 289.343L701.873 289.343"/>
<path class="l1" d="M501.625 289.343L540.562 289.343"/>
<path class="l1" d="M573.937 289.343L612.874 289.343"/>
<path class="l1" d="M540.562 255.969L573.937 289.343"/>
<path class="l1" d="M540.562 289.343L573.937 255.969"/>
<circle class="l1" cx="112.256" cy="289.343" r="2.0581"/>
<circle class="l1" cx="78.881" cy="289.343" r="2.0581"/>
<circle class="l1" cx="78.881" cy="289.343" r="2.0581"/>
<circle class="l1" cx="78.881" cy="289.343" r="2.0581"/>
<circle class="l1" cx="112.256" cy="372.78" r="2.0581"/>
<circle class="l1" cx="112.256" cy="205.907" r="2.0581"/>
<circle class="l1" cx="240.191" cy="289.343" r="2.0581"/>
<circle class="l1" cx="206.817" cy="289.343" r="2.0581"/>
<circle class="l1" cx="206.817" cy="289.343" r="2.0581"/>
<circle class="l1" cx="206.817" cy="289.343" r="2.0581"/>
<circle class="l1" cx="240.191" cy="372.78" r="2.0581"/>
<circle class="l1" cx="240.191" cy="205.907" r="2.0581"/>
<circle class="l1" cx="612.874" cy="289.343" r="2.0581"/>
<circle class="l1" cx="501.625" cy="289.343" r="2.0581"/>
<circle class="l1" cx="612.874" cy="289.343" r="2.0581"/>
<circle class="l1" cx="612.874" cy="372.78" r="2.0581"/>
<circle class="l1" cx="501.625" cy="372.78" r="2.0581"/>
<circle class="l1" cx="501.625" cy="205.907" r="2.0581"/>
<circle class="l1" cx="612.874" cy="205.907" r="2.0581"/>
</svg>
