<svg xmlns="http://www.w3.org/2000/svg" xmlns:xlink="http://www.w3.org/1999/xlink" width="1000" height="700" version="1.1">
<style type="text/css">
.l0{
  fill: #000000;
  stroke: #000000;
  stroke-linecap:round;
  stroke-linejoin:round;
  stroke-width: 0.738348;
}
.l1{
  fill: #00ccee;
  stroke: #00ccee;
  stroke-linecap:round;
  stroke-linejoin:round;
  stroke-width: 0.738348;
}
.l2{
  fill: #4f4f4f; fill-opacity: 0.2;
  stroke: #4f4f4f;
  stroke-linecap:round;
  stroke-linejoin:round;
  stroke-width: 0.738348;
}
.l3{
  fill: #cccccc; fill-opacity: 0.5;
  stroke: #cccccc;
  stroke-linecap:round;
  stroke-linejoin:round;
  stroke-width: 0.738348;
}
.l4{
  fill: #88dd00;
  stroke: #88dd00;
  stroke-linecap:round;
  stroke-linejoin:round;
  stroke-width: 0.738348;
}
.l5{
  fill: #bb2200;
  stroke: #bb2200;
  stroke-linecap:round;
  stroke-linejoin:round;
  stroke-width: 0.738348;
}
.l6{
  fill: #00ccee; fill-opacity: 0.5;
  stroke: #00ccee;
  stroke-linecap:round;
  stroke-linejoin:round;
  stroke-width: 0.738348;
}
.l7{
  fill: #ff0000; fill-opacity: 0.5;
  stroke: #ff0000;
  stroke-linecap:round;
  stroke-linejoin:round;
  stroke-width: 0.738348;
}
.l8{
  fill: #ffff00; fill-opacity: 0.5;
  stroke: #ffff00;
  stroke-linecap:round;
  stroke-linejoin:round;
  stroke-width: 0.738348;
}
.l9{
  fill: #ffffff; fill-opacity: 0.5;
  stroke: #ffffff;
  stroke-linecap:round;
  stroke-linejoin:round;
  stroke-width: 0.738348;
}
.l10{
  fill: #ff00ff;
  stroke: #ff00ff;
  stroke-linecap:round;
  stroke-linejoin:round;
  stroke-width: 0.738348;
}
.l11{
  fill: #00ff00; fill-opacity: 0.5;
  stroke: #00ff00;
  stroke-linecap:round;
  stroke-linejoin:round;
  stroke-width: 0.738348;
}
.l12{
  fill: #0000ff; fill-opacity: 0.5;
  stroke: #0000ff;
  stroke-linecap:round;
  stroke-linejoin:round;
  stroke-width: 0.738348;
}
.l13{
  fill: #aaaa00; fill-opacity: 0.5;
  stroke: #aaaa00;
  stroke-linecap:round;
  stroke-linejoin:round;
  stroke-width: 0.738348;
}
.l14{
  fill: #aaccaa; fill-opacity: 0.2;
  stroke: #aaccaa;
  stroke-linecap:round;
  stroke-linejoin:round;
  stroke-width: 0.738348;
}
.l15{
  fill: #ff7777; fill-opacity: 0.5;
  stroke: #ff7777;
  stroke-linecap:round;
  stroke-linejoin:round;
  stroke-width: 0.738348;
}
.l16{
  fill: #bfff81; fill-opacity: 0.5;
  stroke: #bfff81;
  stroke-linecap:round;
  stroke-linejoin:round;
  stroke-width: 0.738348;
}
.l17{
  fill: #00ffcc; fill-opacity: 0.2;
  stroke: #00ffcc;
  stroke-linecap:round;
  stroke-linejoin:round;
  stroke-width: 0.738348;
}
.l18{
  fill: #ce0097; fill-opacity: 0.5;
  stroke: #ce0097;
  stroke-linecap:round;
  stroke-linejoin:round;
  stroke-width: 0.738348;
}
.l19{
  fill: #d2d46b; fill-opacity: 0.2;
  stroke: #d2d46b;
  stroke-linecap:round;
  stroke-linejoin:round;
  stroke-width: 0.738348;
}
.l20{
  fill: #ef6158; fill-opacity: 0.2;
  stroke: #ef6158;
  stroke-linecap:round;
  stroke-linejoin:round;
  stroke-width: 0.738348;
}
.l21{
  fill: #fdb200; fill-opacity: 0.2;
  stroke: #fdb200;
  stroke-linecap:round;
  stroke-linejoin:round;
  stroke-width: 0.738348;
}
text {font-family: Sans-Serif;}
</style>
<rect class="l0" x="0" y="0" width="1000" height="700"/>
<text fill="#00ccee"  xml:space="preserve" font-size="11.7315" transform="translate(40.3488, 280.12)" >IN</text>
<text fill="#00ccee"  xml:space="preserve" font-size="11.7315" transform="translate(18.601, 381.603)" >VGND</text>
<text fill="#00ccee"  xml:space="preserve" font-size="11.7315" transform="translate(14.601, 176.507)" >VDDIN</text>
<text fill="#00ccee"  xml:space="preserve" font-size="11.7315" transform="translate(872.026, 280.12)" >OUT</text>
<text fill="#00ccee"  xml:space="preserve" font-size="9.59852" transform="translate(382.358, 272.301)" >ctrl</text>
<text fill="#00ccee"  xml:space="preserve" font-size="9.59852" transform="translate(204.608, 272.301)" >ctrl_n</text>
<text fill="#00ccee"  xml:space="preserve" font-size="11.7315" transform="translate(481.16, 176.507)" >VDDOUT</text>
<text fill="#00ccee"  xml:space="preserve" font-size="9.59852" transform="translate(683.094, 313.32)" >ctrl_n</text>
<text fill="#00ccee"  xml:space="preserve" font-size="9.59852" transform="translate(556.363, 313.32)" >ctrl</text>
<text fill="#00ccee"  xml:space="preserve" font-size="9.59852" transform="translate(600.382, 272.301)" >p1</text>
<text fill="#cccccc"  xml:space="preserve" font-size="7.11001" transform="translate(114.278, 302.415)" >M1</text>
<text fill="#ff0000"  xml:space="preserve" font-size="5.33251" transform="translate(136.242, 333.275)" >S</text>
<text fill="#ff0000"  xml:space="preserve" font-size="5.33251" transform="translate(136.242, 303.23)" >D</text>
<text fill="#ff0000"  xml:space="preserve" font-size="5.33251" transform="translate(134.533, 314.474)" >B</text>
<text fill="#ff0000"  xml:space="preserve" font-size="5.33251" transform="translate(110.023, 314.474)" >G</text>
<text fill="#cccccc"  xml:space="preserve" font-size="7.11001" transform="translate(141.369, 308.788)" >nfet_01v8</text>
<text fill="#aaaa00"  xml:space="preserve" font-size="7.11001" transform="translate(142.224, 332.325)" >1 x 0.42 / 0.15</text>
<text fill="#aaaa00"  xml:space="preserve" font-size="7.11001" transform="translate(142.224, 323.779)" >nf=1</text>
<text fill="#cccccc"  xml:space="preserve" font-size="7.11001" transform="translate(114.278, 220.376)" >M2</text>
<text fill="#ff0000"  xml:space="preserve" font-size="5.33251" transform="translate(136.242, 251.236)" >D</text>
<text fill="#ff0000"  xml:space="preserve" font-size="5.33251" transform="translate(136.242, 221.192)" >S</text>
<text fill="#ff0000"  xml:space="preserve" font-size="5.33251" transform="translate(134.533, 232.436)" >B</text>
<text fill="#ff0000"  xml:space="preserve" font-size="5.33251" transform="translate(110.023, 232.436)" >G</text>
<text fill="#cccccc"  xml:space="preserve" font-size="7.11001" transform="translate(141.369, 226.749)" >pfet_01v8</text>
<text fill="#aaaa00"  xml:space="preserve" font-size="7.11001" transform="translate(142.224, 250.286)" >1 x 1 / 0.15</text>
<text fill="#aaaa00"  xml:space="preserve" font-size="7.11001" transform="translate(142.224, 241.741)" >nf=1</text>
<text fill="#cccccc"  xml:space="preserve" font-size="7.11001" transform="translate(271.519, 302.415)" >M3</text>
<text fill="#ff0000"  xml:space="preserve" font-size="5.33251" transform="translate(293.483, 333.275)" >S</text>
<text fill="#ff0000"  xml:space="preserve" font-size="5.33251" transform="translate(293.483, 303.23)" >D</text>
<text fill="#ff0000"  xml:space="preserve" font-size="5.33251" transform="translate(291.774, 314.474)" >B</text>
<text fill="#ff0000"  xml:space="preserve" font-size="5.33251" transform="translate(267.264, 314.474)" >G</text>
<text fill="#cccccc"  xml:space="preserve" font-size="7.11001" transform="translate(298.61, 308.788)" >nfet_01v8</text>
<text fill="#aaaa00"  xml:space="preserve" font-size="7.11001" transform="translate(299.465, 332.325)" >1 x 0.42 / 0.15</text>
<text fill="#aaaa00"  xml:space="preserve" font-size="7.11001" transform="translate(299.465, 323.779)" >nf=1</text>
<text fill="#cccccc"  xml:space="preserve" font-size="7.11001" transform="translate(271.519, 220.376)" >M4</text>
<text fill="#ff0000"  xml:space="preserve" font-size="5.33251" transform="translate(293.483, 251.236)" >D</text>
<text fill="#ff0000"  xml:space="preserve" font-size="5.33251" transform="translate(293.483, 221.192)" >S</text>
<text fill="#ff0000"  xml:space="preserve" font-size="5.33251" transform="translate(291.774, 232.436)" >B</text>
<text fill="#ff0000"  xml:space="preserve" font-size="5.33251" transform="translate(267.264, 232.436)" >G</text>
<text fill="#cccccc"  xml:space="preserve" font-size="7.11001" transform="translate(298.61, 226.749)" >pfet_01v8</text>
<text fill="#aaaa00"  xml:space="preserve" font-size="7.11001" transform="translate(299.465, 250.286)" >1 x 1 / 0.15</text>
<text fill="#aaaa00"  xml:space="preserve" font-size="7.11001" transform="translate(299.465, 241.741)" >nf=1</text>
<text fill="#cccccc"  xml:space="preserve" font-size="7.11001" transform="translate(729.568, 220.376)" >M5</text>
<text fill="#ff0000"  xml:space="preserve" font-size="5.33251" transform="translate(751.532, 251.236)" >D</text>
<text fill="#ff0000"  xml:space="preserve" font-size="5.33251" transform="translate(751.532, 221.192)" >S</text>
<text fill="#ff0000"  xml:space="preserve" font-size="5.33251" transform="translate(749.823, 232.436)" >B</text>
<text fill="#ff0000"  xml:space="preserve" font-size="5.33251" transform="translate(724.031, 232.436)" >G</text>
<text fill="#cccccc"  xml:space="preserve" font-size="7.11001" transform="translate(756.659, 226.749)" >pfet_g5v0d10v5</text>
<text fill="#aaaa00"  xml:space="preserve" font-size="7.11001" transform="translate(757.514, 250.286)" >1 x 0.42 / 0.5</text>
<text fill="#aaaa00"  xml:space="preserve" font-size="7.11001" transform="translate(757.514, 241.741)" >nf=1</text>
<text fill="#cccccc"  xml:space="preserve" font-size="7.11001" transform="translate(592.837, 302.415)" >M6</text>
<text fill="#ff0000"  xml:space="preserve" font-size="5.33251" transform="translate(614.801, 333.275)" >S</text>
<text fill="#ff0000"  xml:space="preserve" font-size="5.33251" transform="translate(614.801, 303.23)" >D</text>
<text fill="#ff0000"  xml:space="preserve" font-size="5.33251" transform="translate(613.092, 314.474)" >B</text>
<text fill="#ff0000"  xml:space="preserve" font-size="5.33251" transform="translate(588.582, 314.474)" >G</text>
<text fill="#cccccc"  xml:space="preserve" font-size="7.11001" transform="translate(619.928, 308.788)" >nfet_g5v0d10v5</text>
<text fill="#aaaa00"  xml:space="preserve" font-size="7.11001" transform="translate(620.783, 332.325)" >1 x 1 / 0.5</text>
<text fill="#aaaa00"  xml:space="preserve" font-size="7.11001" transform="translate(620.783, 323.779)" >nf=1</text>
<text fill="#cccccc"  xml:space="preserve" font-size="7.11001" transform="translate(623.346, 220.376)" >M7</text>
<text fill="#ff0000"  xml:space="preserve" font-size="5.33251" transform="translate(607.382, 251.236)" >D</text>
<text fill="#ff0000"  xml:space="preserve" font-size="5.33251" transform="translate(608.382, 221.192)" >S</text>
<text fill="#ff0000"  xml:space="preserve" font-size="5.33251" transform="translate(609.092, 232.436)" >B</text>
<text fill="#ff0000"  xml:space="preserve" font-size="5.33251" transform="translate(634.883, 232.436)" >G</text>
<text fill="#cccccc"  xml:space="preserve" font-size="7.11001" transform="translate(554.255, 226.749)" >pfet_g5v0d10v5</text>
<text fill="#aaaa00"  xml:space="preserve" font-size="7.11001" transform="translate(562.4, 250.286)" >1 x 0.42 / 0.5</text>
<text fill="#aaaa00"  xml:space="preserve" font-size="7.11001" transform="translate(591.4, 241.741)" >nf=1</text>
<text fill="#cccccc"  xml:space="preserve" font-size="7.11001" transform="translate(729.568, 302.415)" >M8</text>
<text fill="#ff0000"  xml:space="preserve" font-size="5.33251" transform="translate(751.532, 333.275)" >S</text>
<text fill="#ff0000"  xml:space="preserve" font-size="5.33251" transform="translate(751.532, 303.23)" >D</text>
<text fill="#ff0000"  xml:space="preserve" font-size="5.33251" transform="translate(749.823, 314.474)" >B</text>
<text fill="#ff0000"  xml:space="preserve" font-size="5.33251" transform="translate(725.313, 314.474)" >G</text>
<text fill="#cccccc"  xml:space="preserve" font-size="7.11001" transform="translate(756.659, 308.788)" >nfet_g5v0d10v5</text>
<text fill="#aaaa00"  xml:space="preserve" font-size="7.11001" transform="translate(757.514, 332.325)" >1 x 1 / 0.5</text>
<text fill="#aaaa00"  xml:space="preserve" font-size="7.11001" transform="translate(757.514, 323.779)" >nf=1</text>
<text fill="#cccccc"  xml:space="preserve" font-size="14.22" transform="translate(322.538, 524.222)" >         /home/leo/Projects/IPs/sky130_leo_ip__levelshifter/xschem/sky130_leo_ip__levelshifter_up.sch</text>
<text fill="#cccccc"  xml:space="preserve" font-size="14.22" transform="translate(322.538, 503.713)" >Leo Moser</text>
<text fill="#cccccc"  xml:space="preserve" font-size="14.22" transform="translate(721.207, 503.713)" >2024-08-09  11:49:19</text>
<text fill="#cccccc"  xml:space="preserve" font-size="35.5501" transform="translate(165.297, 523.08)" >SCHEM</text>
<path class="l4" d="M125.987 301.087L125.987 331.851"/>
<path class="l4" d="M107.187 316.469L122.569 316.469"/>
<path class="l4" d="M134.533 295.959L134.533 304.505"/>
<path class="l4" d="M134.533 328.433L134.533 336.979"/>
<path class="l4" d="M122.569 306.214L122.569 326.724"/>
<path class="l4" d="M125.987 304.505L134.533 304.505"/>
<path class="l4" d="M125.987 328.433L131.115 328.433"/>
<path class="l4" d="M131.115 326.724L134.533 328.433L131.115 330.142L131.115 326.724"/>
<path class="l4" d="M125.987 219.048L125.987 249.812"/>
<path class="l4" d="M134.533 213.921L134.533 222.466"/>
<path class="l4" d="M134.533 246.394L134.533 254.94"/>
<path class="l4" d="M122.569 224.175L122.569 244.685"/>
<path class="l4" d="M125.987 246.394L134.533 246.394"/>
<path class="l4" d="M129.405 222.466L134.533 222.466"/>
<path class="l4" d="M107.187 234.43L115.732 234.43"/>
<path class="l4" d="M129.405 220.757L125.987 222.466L129.405 224.175L129.405 220.757"/>
<circle class="l4" cx="119.151" cy="234.43" r="3.41828" style="fill:none;" />
<path class="l4" d="M283.228 301.087L283.228 331.851"/>
<path class="l4" d="M264.427 316.469L279.81 316.469"/>
<path class="l4" d="M291.774 295.959L291.774 304.505"/>
<path class="l4" d="M291.774 328.433L291.774 336.979"/>
<path class="l4" d="M279.81 306.214L279.81 326.724"/>
<path class="l4" d="M283.228 304.505L291.774 304.505"/>
<path class="l4" d="M283.228 328.433L288.355 328.433"/>
<path class="l4" d="M288.355 326.724L291.774 328.433L288.355 330.142L288.355 326.724"/>
<path class="l4" d="M283.228 219.048L283.228 249.812"/>
<path class="l4" d="M291.774 213.921L291.774 222.466"/>
<path class="l4" d="M291.774 246.394L291.774 254.94"/>
<path class="l4" d="M279.81 224.175L279.81 244.685"/>
<path class="l4" d="M283.228 246.394L291.774 246.394"/>
<path class="l4" d="M286.646 222.466L291.774 222.466"/>
<path class="l4" d="M264.427 234.43L272.973 234.43"/>
<path class="l4" d="M286.646 220.757L283.228 222.466L286.646 224.175L286.646 220.757"/>
<circle class="l4" cx="276.391" cy="234.43" r="3.41828" style="fill:none;" />
<path class="l4" d="M749.823 213.921L749.823 222.466"/>
<path class="l4" d="M749.823 246.394L749.823 254.94"/>
<path class="l4" d="M741.277 246.394L749.823 246.394"/>
<path class="l4" d="M744.695 222.466L749.823 222.466"/>
<path class="l4" d="M722.476 234.43L727.604 234.43"/>
<path class="l4" d="M741.277 219.048L741.277 249.812"/>
<path class="l4" d="M744.695 220.757L741.277 222.466L744.695 224.175L744.695 220.757"/>
<path class="l4" style="fill:none;" d="M734.44 244.685L734.44 224.175L737.859 224.175L737.859 244.685L734.44 244.685"/>
<circle class="l4" cx="731.022" cy="234.43" r="3.41828" style="fill:none;" />
<path class="l4" d="M613.092 295.959L613.092 304.505"/>
<path class="l4" d="M613.092 328.433L613.092 336.979"/>
<path class="l4" d="M604.546 304.505L613.092 304.505"/>
<path class="l4" d="M604.546 328.433L609.673 328.433"/>
<path class="l4" d="M604.546 301.087L604.546 331.851"/>
<path class="l4" d="M585.745 316.469L597.709 316.469"/>
<path class="l4" d="M609.673 326.724L613.092 328.433L609.673 330.142L609.673 326.724"/>
<path class="l4" style="fill:none;" d="M597.709 326.724L597.709 306.214L601.128 306.214L601.128 326.724L597.709 326.724"/>
<path class="l4" d="M613.092 213.921L613.092 222.466"/>
<path class="l4" d="M613.092 246.394L613.092 254.94"/>
<path class="l4" d="M613.092 246.394L621.637 246.394"/>
<path class="l4" d="M613.092 222.466L618.219 222.466"/>
<path class="l4" d="M635.31 234.43L640.438 234.43"/>
<path class="l4" d="M621.637 219.048L621.637 249.812"/>
<path class="l4" d="M618.219 220.757L621.637 222.466L618.219 224.175L618.219 220.757"/>
<path class="l4" style="fill:none;" d="M628.474 244.685L628.474 224.175L625.056 224.175L625.056 244.685L628.474 244.685"/>
<circle class="l4" cx="631.892" cy="234.43" r="3.41828" style="fill:none;" />
<path class="l4" d="M749.823 295.959L749.823 304.505"/>
<path class="l4" d="M749.823 328.433L749.823 336.979"/>
<path class="l4" d="M741.277 304.505L749.823 304.505"/>
<path class="l4" d="M741.277 328.433L746.404 328.433"/>
<path class="l4" d="M741.277 301.087L741.277 331.851"/>
<path class="l4" d="M722.476 316.469L734.44 316.469"/>
<path class="l4" d="M746.404 326.724L749.823 328.433L746.404 330.142L746.404 326.724"/>
<path class="l4" style="fill:none;" d="M734.44 326.724L734.44 306.214L737.859 306.214L737.859 326.724L734.44 326.724"/>
<path class="l5" d="M62.7491 275.45L66.1674 275.45"/>
<path class="l5" d="M62.7491 275.45L60.1854 272.031L54.2034 272.031L56.7671 275.45L54.2034 278.868L60.1854 278.868L62.7491 275.45"/>
<path class="l5" d="M65.3128 274.595L67.0219 274.595L67.0219 276.304L65.3128 276.304L65.3128 274.595z"/>
<path class="l5" d="M64.0309 377.998L66.1674 377.998"/>
<path class="l5" d="M56.7671 374.58L54.2034 377.998L56.7671 381.416L61.4672 381.416L64.0309 377.998L61.4672 374.58L56.7671 374.58"/>
<path class="l5" d="M65.3128 377.143L67.0219 377.143L67.0219 378.852L65.3128 378.852L65.3128 377.143z"/>
<path class="l5" d="M64.0309 172.901L66.1674 172.901"/>
<path class="l5" d="M56.7671 169.483L54.2034 172.901L56.7671 176.32L61.4672 176.32L64.0309 172.901L61.4672 169.483L56.7671 169.483"/>
<path class="l5" d="M65.3128 172.047L67.0219 172.047L67.0219 173.756L65.3128 173.756L65.3128 172.047z"/>
<path class="l5" d="M859.207 275.45L862.626 275.45"/>
<path class="l5" d="M862.626 275.45L865.189 272.031L871.171 272.031L868.608 275.45L871.171 278.868L865.189 278.868L862.626 275.45"/>
<path class="l5" d="M858.353 274.595L860.062 274.595L860.062 276.304L858.353 276.304L858.353 274.595z"/>
<path class="l5" d="M134.533 314.76L131.115 316.469L134.533 318.178L134.533 314.76"/>
<path class="l5" d="M132.824 294.25L136.242 294.25L136.242 297.668L132.824 297.668L132.824 294.25z"/>
<path class="l5" d="M105.478 314.76L108.896 314.76L108.896 318.178L105.478 318.178L105.478 314.76z"/>
<path class="l5" d="M132.824 335.269L136.242 335.269L136.242 338.688L132.824 338.688L132.824 335.269z"/>
<path class="l5" d="M134.479 316.415L134.586 316.415L134.586 316.522L134.479 316.522L134.479 316.415z"/>
<path class="l5" d="M131.115 232.721L134.533 234.43L131.115 236.139L131.115 232.721"/>
<path class="l5" d="M132.824 253.231L136.242 253.231L136.242 256.649L132.824 256.649L132.824 253.231z"/>
<path class="l5" d="M105.478 232.721L108.896 232.721L108.896 236.139L105.478 236.139L105.478 232.721z"/>
<path class="l5" d="M132.824 212.211L136.242 212.211L136.242 215.63L132.824 215.63L132.824 212.211z"/>
<path class="l5" d="M134.479 234.377L134.586 234.377L134.586 234.484L134.479 234.484L134.479 234.377z"/>
<path class="l5" d="M291.774 314.76L288.355 316.469L291.774 318.178L291.774 314.76"/>
<path class="l5" d="M290.064 294.25L293.483 294.25L293.483 297.668L290.064 297.668L290.064 294.25z"/>
<path class="l5" d="M262.718 314.76L266.137 314.76L266.137 318.178L262.718 318.178L262.718 314.76z"/>
<path class="l5" d="M290.064 335.269L293.483 335.269L293.483 338.688L290.064 338.688L290.064 335.269z"/>
<path class="l5" d="M291.72 316.415L291.827 316.415L291.827 316.522L291.72 316.522L291.72 316.415z"/>
<path class="l5" d="M288.355 232.721L291.774 234.43L288.355 236.139L288.355 232.721"/>
<path class="l5" d="M290.064 253.231L293.483 253.231L293.483 256.649L290.064 256.649L290.064 253.231z"/>
<path class="l5" d="M262.718 232.721L266.137 232.721L266.137 236.139L262.718 236.139L262.718 232.721z"/>
<path class="l5" d="M290.064 212.211L293.483 212.211L293.483 215.63L290.064 215.63L290.064 212.211z"/>
<path class="l5" d="M291.72 234.377L291.827 234.377L291.827 234.484L291.72 234.484L291.72 234.377z"/>
<path class="l5" d="M379.794 274.595L381.503 274.595L381.503 276.304L379.794 276.304L379.794 274.595z"/>
<path class="l5" d="M202.044 274.595L203.753 274.595L203.753 276.304L202.044 276.304L202.044 274.595z"/>
<path class="l5" d="M542.59 172.901L544.726 172.901"/>
<path class="l5" d="M535.326 169.483L532.762 172.901L535.326 176.32L540.026 176.32L542.59 172.901L540.026 169.483L535.326 169.483"/>
<path class="l5" d="M543.871 172.047L545.581 172.047L545.581 173.756L543.871 173.756L543.871 172.047z"/>
<path class="l5" d="M746.404 232.721L749.823 234.43L746.404 236.139L746.404 232.721"/>
<path class="l5" d="M748.113 253.231L751.532 253.231L751.532 256.649L748.113 256.649L748.113 253.231z"/>
<path class="l5" d="M720.767 232.721L724.186 232.721L724.186 236.139L720.767 236.139L720.767 232.721z"/>
<path class="l5" d="M748.113 212.211L751.532 212.211L751.532 215.63L748.113 215.63L748.113 212.211z"/>
<path class="l5" d="M749.769 234.377L749.876 234.377L749.876 234.484L749.769 234.484L749.769 234.377z"/>
<path class="l5" d="M613.092 314.76L609.673 316.469L613.092 318.178L613.092 314.76"/>
<path class="l5" d="M611.382 294.25L614.801 294.25L614.801 297.668L611.382 297.668L611.382 294.25z"/>
<path class="l5" d="M584.036 314.76L587.454 314.76L587.454 318.178L584.036 318.178L584.036 314.76z"/>
<path class="l5" d="M611.382 335.269L614.801 335.269L614.801 338.688L611.382 338.688L611.382 335.269z"/>
<path class="l5" d="M613.038 316.415L613.145 316.415L613.145 316.522L613.038 316.522L613.038 316.415z"/>
<path class="l5" d="M616.51 232.721L613.092 234.43L616.51 236.139L616.51 232.721"/>
<path class="l5" d="M611.382 253.231L614.801 253.231L614.801 256.649L611.382 256.649L611.382 253.231z"/>
<path class="l5" d="M638.729 232.721L642.147 232.721L642.147 236.139L638.729 236.139L638.729 232.721z"/>
<path class="l5" d="M611.382 212.211L614.801 212.211L614.801 215.63L611.382 215.63L611.382 212.211z"/>
<path class="l5" d="M613.038 234.377L613.145 234.377L613.145 234.484L613.038 234.484L613.038 234.377z"/>
<path class="l5" d="M749.823 314.76L746.404 316.469L749.823 318.178L749.823 314.76"/>
<path class="l5" d="M748.113 294.25L751.532 294.25L751.532 297.668L748.113 297.668L748.113 294.25z"/>
<path class="l5" d="M720.767 314.76L724.186 314.76L724.186 318.178L720.767 318.178L720.767 314.76z"/>
<path class="l5" d="M748.113 335.269L751.532 335.269L751.532 338.688L748.113 338.688L748.113 335.269z"/>
<path class="l5" d="M749.769 316.415L749.876 316.415L749.876 316.522L749.769 316.522L749.769 316.415z"/>
<path class="l5" d="M707.949 315.614L709.658 315.614L709.658 317.323L707.949 317.323L707.949 315.614z"/>
<path class="l5" d="M571.218 315.614L572.927 315.614L572.927 317.323L571.218 317.323L571.218 315.614z"/>
<path class="l5" d="M155.043 497.637L154.829 497.851L154.615 498.065L154.402 498.278L154.188 498.492L153.974 498.706L153.761 498.919L153.547 499.133L153.333 499.347L153.12 499.56L152.906 499.774L152.692 499.988L152.479 500.201L152.265 500.415L152.052 500.628L151.838 500.842L151.624 501.056L151.411 501.269L151.197 501.483L150.983 501.697L150.77 501.91L150.556 502.124L150.342 502.338L150.129 502.551L149.915 502.765L149.701 502.979L149.488 503.192L149.274 503.406L149.061 503.619L148.847 503.833L148.633 504.047L148.42 504.26L148.206 504.474L148.206 504.474L147.999 504.688L147.805 504.901L147.625 505.115L147.458 505.329L147.305 505.542L147.164 505.756L147.038 505.97L146.924 506.183L146.824 506.397L146.737 506.61L146.664 506.824L146.604 507.038L146.557 507.251L146.524 507.465L146.504 507.679L146.497 507.892L146.504 508.106L146.524 508.32L146.557 508.533L146.604 508.747L146.664 508.961L146.737 509.174L146.824 509.388L146.924 509.601L147.038 509.815L147.164 510.029L147.305 510.242L147.458 510.456L147.625 510.67L147.805 510.883L147.999 511.097L148.206 511.311L148.206 511.311L148.42 511.525L148.637 511.741L148.854 511.959L149.074 512.179L149.295 512.4L149.518 512.622L149.742 512.847L149.969 513.073L150.196 513.301L150.426 513.53L150.657 513.762L150.89 513.994L151.124 514.229L151.361 514.465L151.598 514.703L151.838 514.943L152.079 515.184L152.322 515.427L152.566 515.671L152.813 515.917L153.061 516.165L153.31 516.415L153.561 516.666L153.814 516.919L154.069 517.173L154.325 517.429L154.583 517.687L154.842 517.947L155.103 518.208L155.366 518.471L155.631 518.735L155.897 519.002L155.897 519.002L156.162 519.267L156.425 519.529L156.683 519.788L156.939 520.043L157.191 520.295L157.439 520.544L157.685 520.789L157.927 521.031L158.165 521.27L158.401 521.505L158.633 521.737L158.861 521.966L159.087 522.191L159.309 522.413L159.527 522.632L159.743 522.847L159.955 523.059L160.163 523.268L160.369 523.473L160.571 523.675L160.769 523.874L160.964 524.069L161.156 524.261L161.345 524.45L161.53 524.635L161.712 524.817L161.891 524.995L162.066 525.171L162.238 525.343L162.407 525.511L162.572 525.676L162.734 525.838L162.734 525.838L162.889 525.996L163.034 526.149L163.169 526.296L163.294 526.439L163.41 526.577L163.515 526.71L163.61 526.837L163.695 526.96L163.77 527.078L163.835 527.19L163.89 527.298L163.935 527.401L163.97 527.498L163.995 527.591L164.011 527.678L164.016 527.761L164.011 527.839L163.995 527.911L163.97 527.979L163.935 528.041L163.89 528.099L163.835 528.152L163.77 528.199L163.695 528.242L163.61 528.279L163.515 528.312L163.41 528.339L163.294 528.362L163.169 528.379L163.034 528.392L162.889 528.399L162.734 528.402L162.734 528.402L162.573 528.402L162.413 528.402L162.253 528.402L162.093 528.402L161.933 528.402L161.772 528.402L161.612 528.402L161.452 528.402L161.292 528.402L161.131 528.402L160.971 528.402L160.811 528.402L160.651 528.402L160.49 528.402L160.33 528.402L160.17 528.402L160.01 528.402L159.849 528.402L159.689 528.402L159.529 528.402L159.369 528.402L159.209 528.402L159.048 528.402L158.888 528.402L158.728 528.402L158.568 528.402L158.407 528.402L158.247 528.402L158.087 528.402L157.927 528.402L157.766 528.402L157.606 528.402L157.606 528.402L157.447 528.402L157.289 528.402L157.133 528.402L156.979 528.402L156.826 528.402L156.675 528.402L156.526 528.402L156.378 528.402L156.232 528.402L156.087 528.402L155.945 528.402L155.804 528.402L155.664 528.402L155.527 528.402L155.391 528.402L155.256 528.402L155.123 528.402L154.992 528.402L154.863 528.402L154.735 528.402L154.609 528.402L154.485 528.402L154.362 528.402L154.241 528.402L154.122 528.402L154.004 528.402L153.888 528.402L153.774 528.402L153.661 528.402L153.55 528.402L153.441 528.402L153.333 528.402L153.333 528.402L153.227 528.4L153.12 528.395L153.013 528.387L152.906 528.375L152.799 528.36L152.692 528.342L152.586 528.32L152.479 528.295L152.372 528.267L152.265 528.235L152.158 528.2L152.052 528.162L151.945 528.12L151.838 528.075L151.731 528.026L151.624 527.975L151.517 527.92L151.411 527.861L151.304 527.799L151.197 527.734L151.09 527.666L150.983 527.594L150.877 527.519L150.77 527.441L150.663 527.359L150.556 527.274L150.449 527.185L150.342 527.093L150.236 526.998L150.129 526.9L150.022 526.798L149.915 526.693L149.915 526.693L149.808 526.586L149.701 526.479L149.595 526.372L149.488 526.266L149.381 526.159L149.274 526.052L149.167 525.945L149.061 525.838L148.954 525.731L148.847 525.625L148.74 525.518L148.633 525.411L148.526 525.304L148.42 525.197L148.313 525.091L148.206 524.984L148.099 524.877L147.992 524.77L147.886 524.663L147.779 524.556L147.672 524.45L147.565 524.343L147.458 524.236L147.351 524.129L147.245 524.022L147.138 523.915L147.031 523.809L146.924 523.702L146.817 523.595L146.71 523.488L146.604 523.381L146.497 523.275L146.497 523.275L146.388 523.166L146.277 523.054L146.161 522.939L146.043 522.821L145.921 522.699L145.796 522.574L145.667 522.445L145.535 522.313L145.4 522.178L145.262 522.039L145.12 521.898L144.975 521.752L144.826 521.604L144.674 521.452L144.519 521.297L144.36 521.138L144.199 520.976L144.033 520.811L143.865 520.642L143.693 520.471L143.518 520.295L143.339 520.117L143.157 519.935L142.972 519.749L142.783 519.561L142.591 519.369L142.396 519.174L142.197 518.975L141.995 518.773L141.79 518.568L141.581 518.359L141.369 518.147L141.369 518.147L141.156 517.94L140.942 517.747L140.729 517.566L140.515 517.399L140.301 517.246L140.088 517.106L139.874 516.979L139.66 516.865L139.447 516.765L139.233 516.678L139.019 516.605L138.806 516.545L138.592 516.498L138.378 516.465L138.165 516.445L137.951 516.438L137.738 516.445L137.524 516.465L137.31 516.498L137.097 516.545L136.883 516.605L136.669 516.678L136.456 516.765L136.242 516.865L136.028 516.979L135.815 517.106L135.601 517.246L135.387 517.399L135.174 517.566L134.96 517.747L134.747 517.94L134.533 518.147L134.533 518.147L134.321 518.359L134.112 518.568L133.907 518.773L133.705 518.975L133.506 519.174L133.311 519.369L133.119 519.561L132.931 519.749L132.745 519.935L132.563 520.117L132.385 520.295L132.21 520.471L132.038 520.642L131.869 520.811L131.704 520.976L131.542 521.138L131.383 521.297L131.228 521.452L131.076 521.604L130.928 521.752L130.782 521.898L130.641 522.039L130.502 522.178L130.367 522.313L130.235 522.445L130.106 522.574L129.981 522.699L129.859 522.821L129.741 522.939L129.626 523.054L129.514 523.166L129.405 523.275L129.405 523.275L129.299 523.381L129.192 523.488L129.085 523.595L128.978 523.702L128.871 523.809L128.765 523.915L128.658 524.022L128.551 524.129L128.444 524.236L128.337 524.343L128.23 524.45L128.124 524.556L128.017 524.663L127.91 524.77L127.803 524.877L127.696 524.984L127.59 525.091L127.483 525.197L127.376 525.304L127.269 525.411L127.162 525.518L127.055 525.625L126.949 525.731L126.842 525.838L126.735 525.945L126.628 526.052L126.521 526.159L126.414 526.266L126.308 526.372L126.201 526.479L126.094 526.586L125.987 526.693L125.987 526.693L125.88 526.798L125.774 526.9L125.667 526.998L125.56 527.093L125.453 527.185L125.346 527.274L125.239 527.359L125.133 527.441L125.026 527.519L124.919 527.594L124.812 527.666L124.705 527.734L124.599 527.799L124.492 527.861L124.385 527.92L124.278 527.975L124.171 528.026L124.064 528.075L123.958 528.12L123.851 528.162L123.744 528.2L123.637 528.235L123.53 528.267L123.423 528.295L123.317 528.32L123.21 528.342L123.103 528.36L122.996 528.375L122.889 528.387L122.783 528.395L122.676 528.4L122.569 528.402L122.569 528.402L122.461 528.402L122.352 528.402L122.241 528.402L122.128 528.402L122.014 528.402L121.898 528.402L121.78 528.402L121.661 528.402L121.54 528.402L121.417 528.402L121.293 528.402L121.167 528.402L121.039 528.402L120.91 528.402L120.779 528.402L120.646 528.402L120.512 528.402L120.376 528.402L120.238 528.402L120.099 528.402L119.958 528.402L119.815 528.402L119.671 528.402L119.525 528.402L119.377 528.402L119.227 528.402L119.076 528.402L118.924 528.402L118.769 528.402L118.613 528.402L118.455 528.402L118.296 528.402L118.296 528.402L118.136 528.402L117.976 528.402L117.815 528.402L117.655 528.402L117.495 528.402L117.335 528.402L117.174 528.402L117.014 528.402L116.854 528.402L116.694 528.402L116.534 528.402L116.373 528.402L116.213 528.402L116.053 528.402L115.893 528.402L115.732 528.402L115.572 528.402L115.412 528.402L115.252 528.402L115.091 528.402L114.931 528.402L114.771 528.402L114.611 528.402L114.451 528.402L114.29 528.402L114.13 528.402L113.97 528.402L113.81 528.402L113.649 528.402L113.489 528.402L113.329 528.402L113.169 528.402L113.169 528.402L113.013 528.399L112.868 528.392L112.733 528.379L112.608 528.362L112.493 528.339L112.388 528.312L112.292 528.279L112.207 528.242L112.132 528.199L112.067 528.152L112.012 528.099L111.967 528.041L111.932 527.979L111.907 527.911L111.892 527.839L111.887 527.761L111.892 527.678L111.907 527.591L111.932 527.498L111.967 527.401L112.012 527.298L112.067 527.19L112.132 527.078L112.207 526.96L112.292 526.837L112.388 526.71L112.493 526.577L112.608 526.439L112.733 526.296L112.868 526.149L113.013 525.996L113.169 525.838L113.169 525.838L113.331 525.676L113.496 525.511L113.664 525.343L113.836 525.171L114.012 524.995L114.19 524.817L114.372 524.635L114.557 524.45L114.746 524.261L114.938 524.069L115.133 523.874L115.332 523.675L115.534 523.473L115.739 523.268L115.948 523.059L116.16 522.847L116.375 522.632L116.594 522.413L116.816 522.191L117.041 521.966L117.27 521.737L117.502 521.505L117.737 521.27L117.976 521.031L118.218 520.789L118.463 520.544L118.712 520.295L118.964 520.043L119.219 519.788L119.478 519.529L119.74 519.267L120.005 519.002L120.005 519.002L120.271 518.735L120.536 518.471L120.799 518.208L121.06 517.947L121.32 517.687L121.577 517.429L121.834 517.173L122.088 516.919L122.341 516.666L122.592 516.415L122.842 516.165L123.09 515.917L123.336 515.671L123.58 515.427L123.823 515.184L124.064 514.943L124.304 514.703L124.542 514.465L124.778 514.229L125.012 513.994L125.245 513.762L125.476 513.53L125.706 513.301L125.934 513.073L126.16 512.847L126.384 512.622L126.607 512.4L126.828 512.179L127.048 511.959L127.266 511.741L127.482 511.525L127.696 511.311L127.696 511.311L127.903 511.097L128.097 510.883L128.277 510.67L128.444 510.456L128.598 510.242L128.738 510.029L128.865 509.815L128.978 509.601L129.078 509.388L129.165 509.174L129.239 508.961L129.299 508.747L129.345 508.533L129.379 508.32L129.399 508.106L129.405 507.892L129.399 507.679L129.379 507.465L129.345 507.251L129.299 507.038L129.239 506.824L129.165 506.61L129.078 506.397L128.978 506.183L128.865 505.97L128.738 505.756L128.598 505.542L128.444 505.329L128.277 505.115L128.097 504.901L127.903 504.688L127.696 504.474L127.696 504.474L127.482 504.26L127.266 504.043L127.048 503.826L126.828 503.606L126.607 503.385L126.384 503.162L126.16 502.938L125.934 502.711L125.706 502.484L125.476 502.254L125.245 502.023L125.012 501.79L124.778 501.556L124.542 501.319L124.304 501.082L124.064 500.842L123.823 500.601L123.58 500.358L123.336 500.114L123.09 499.867L122.842 499.62L122.592 499.37L122.341 499.119L122.088 498.866L121.834 498.611L121.577 498.355L121.32 498.097L121.06 497.838L120.799 497.577L120.536 497.314L120.271 497.049L120.005 496.783L120.005 496.783L119.74 496.518L119.478 496.255L119.219 495.997L118.964 495.741L118.712 495.489L118.463 495.241L118.218 494.995L117.976 494.753L117.737 494.515L117.502 494.279L117.27 494.047L117.041 493.819L116.816 493.593L116.594 493.371L116.375 493.153L116.16 492.937L115.948 492.725L115.739 492.517L115.534 492.311L115.332 492.109L115.133 491.911L114.938 491.716L114.746 491.524L114.557 491.335L114.372 491.15L114.19 490.968L114.012 490.789L113.836 490.614L113.664 490.442L113.496 490.274L113.331 490.108L113.169 489.946L113.169 489.946L113.013 489.789L112.868 489.636L112.733 489.488L112.608 489.345L112.493 489.208L112.388 489.075L112.292 488.947L112.207 488.825L112.132 488.707L112.067 488.594L112.012 488.487L111.967 488.384L111.932 488.286L111.907 488.194L111.892 488.106L111.887 488.024L111.892 487.946L111.907 487.873L111.932 487.806L111.967 487.743L112.012 487.686L112.067 487.633L112.132 487.585L112.207 487.543L112.292 487.505L112.388 487.473L112.493 487.445L112.608 487.423L112.733 487.405L112.868 487.393L113.013 487.385L113.169 487.383L113.169 487.383L113.329 487.383L113.489 487.383L113.649 487.383L113.81 487.383L113.97 487.383L114.13 487.383L114.29 487.383L114.451 487.383L114.611 487.383L114.771 487.383L114.931 487.383L115.091 487.383L115.252 487.383L115.412 487.383L115.572 487.383L115.732 487.383L115.893 487.383L116.053 487.383L116.213 487.383L116.373 487.383L116.534 487.383L116.694 487.383L116.854 487.383L117.014 487.383L117.174 487.383L117.335 487.383L117.495 487.383L117.655 487.383L117.815 487.383L117.976 487.383L118.136 487.383L118.296 487.383L118.296 487.383L118.455 487.383L118.613 487.383L118.769 487.383L118.924 487.383L119.076 487.383L119.227 487.383L119.377 487.383L119.525 487.383L119.671 487.383L119.815 487.383L119.958 487.383L120.099 487.383L120.238 487.383L120.376 487.383L120.512 487.383L120.646 487.383L120.779 487.383L120.91 487.383L121.039 487.383L121.167 487.383L121.293 487.383L121.417 487.383L121.54 487.383L121.661 487.383L121.78 487.383L121.898 487.383L122.014 487.383L122.128 487.383L122.241 487.383L122.352 487.383L122.461 487.383L122.569 487.383L122.569 487.383L122.676 487.384L122.783 487.389L122.889 487.398L122.996 487.409L123.103 487.424L123.21 487.443L123.317 487.464L123.423 487.489L123.53 487.518L123.637 487.55L123.744 487.585L123.851 487.623L123.958 487.665L124.064 487.71L124.171 487.758L124.278 487.81L124.385 487.865L124.492 487.923L124.599 487.985L124.705 488.05L124.812 488.119L124.919 488.19L125.026 488.266L125.133 488.344L125.239 488.426L125.346 488.511L125.453 488.599L125.56 488.691L125.667 488.786L125.774 488.885L125.88 488.987L125.987 489.092L125.987 489.092L126.094 489.199L126.201 489.305L126.308 489.412L126.414 489.519L126.521 489.626L126.628 489.733L126.735 489.84L126.842 489.946L126.949 490.053L127.055 490.16L127.162 490.267L127.269 490.374L127.376 490.48L127.483 490.587L127.59 490.694L127.696 490.801L127.803 490.908L127.91 491.015L128.017 491.121L128.124 491.228L128.23 491.335L128.337 491.442L128.444 491.549L128.551 491.656L128.658 491.762L128.765 491.869L128.871 491.976L128.978 492.083L129.085 492.19L129.192 492.296L129.299 492.403L129.405 492.51L129.405 492.51L129.514 492.619L129.626 492.73L129.741 492.846L129.859 492.964L129.981 493.086L130.106 493.211L130.235 493.34L130.367 493.471L130.502 493.607L130.641 493.745L130.782 493.887L130.928 494.032L131.076 494.181L131.228 494.333L131.383 494.488L131.542 494.646L131.704 494.808L131.869 494.974L132.038 495.142L132.21 495.314L132.385 495.489L132.563 495.668L132.745 495.85L132.931 496.035L133.119 496.224L133.311 496.416L133.506 496.611L133.705 496.81L133.907 497.012L134.112 497.217L134.321 497.426L134.533 497.637L134.533 497.637L134.747 497.844L134.96 498.038L135.174 498.218L135.387 498.385L135.601 498.539L135.815 498.679L136.028 498.806L136.242 498.919L136.456 499.019L136.669 499.106L136.883 499.18L137.097 499.24L137.31 499.287L137.524 499.32L137.738 499.34L137.951 499.347L138.165 499.34L138.378 499.32L138.592 499.287L138.806 499.24L139.019 499.18L139.233 499.106L139.447 499.019L139.66 498.919L139.874 498.806L140.088 498.679L140.301 498.539L140.515 498.385L140.729 498.218L140.942 498.038L141.156 497.844L141.369 497.637L141.369 497.637L141.581 497.426L141.79 497.217L141.995 497.012L142.197 496.81L142.396 496.611L142.591 496.416L142.783 496.224L142.972 496.035L143.157 495.85L143.339 495.668L143.518 495.489L143.693 495.314L143.865 495.142L144.033 494.974L144.199 494.808L144.36 494.646L144.519 494.488L144.674 494.333L144.826 494.181L144.975 494.032L145.12 493.887L145.262 493.745L145.4 493.607L145.535 493.471L145.667 493.34L145.796 493.211L145.921 493.086L146.043 492.964L146.161 492.846L146.277 492.73L146.388 492.619L146.497 492.51L146.497 492.51L146.604 492.403L146.71 492.296L146.817 492.19L146.924 492.083L147.031 491.976L147.138 491.869L147.245 491.762L147.351 491.656L147.458 491.549L147.565 491.442L147.672 491.335L147.779 491.228L147.886 491.121L147.992 491.015L148.099 490.908L148.206 490.801L148.313 490.694L148.42 490.587L148.526 490.48L148.633 490.374L148.74 490.267L148.847 490.16L148.954 490.053L149.061 489.946L149.167 489.84L149.274 489.733L149.381 489.626L149.488 489.519L149.595 489.412L149.701 489.305L149.808 489.199L149.915 489.092L149.915 489.092L150.022 488.987L150.129 488.885L150.236 488.786L150.342 488.691L150.449 488.599L150.556 488.511L150.663 488.426L150.77 488.344L150.877 488.266L150.983 488.19L151.09 488.119L151.197 488.05L151.304 487.985L151.411 487.923L151.517 487.865L151.624 487.81L151.731 487.758L151.838 487.71L151.945 487.665L152.052 487.623L152.158 487.585L152.265 487.55L152.372 487.518L152.479 487.489L152.586 487.464L152.692 487.443L152.799 487.424L152.906 487.409L153.013 487.398L153.12 487.389L153.227 487.384L153.333 487.383L153.333 487.383L153.441 487.383L153.55 487.383L153.661 487.383L153.774 487.383L153.888 487.383L154.004 487.383L154.122 487.383L154.241 487.383L154.362 487.383L154.485 487.383L154.609 487.383L154.735 487.383L154.863 487.383L154.992 487.383L155.123 487.383L155.256 487.383L155.391 487.383L155.527 487.383L155.664 487.383L155.804 487.383L155.945 487.383L156.087 487.383L156.232 487.383L156.378 487.383L156.526 487.383L156.675 487.383L156.826 487.383L156.979 487.383L157.133 487.383L157.289 487.383L157.447 487.383L157.606 487.383L157.606 487.383L157.766 487.383L157.927 487.383L158.087 487.383L158.247 487.383L158.407 487.383L158.568 487.383L158.728 487.383L158.888 487.383L159.048 487.383L159.209 487.383L159.369 487.383L159.529 487.383L159.689 487.383L159.849 487.383L160.01 487.383L160.17 487.383L160.33 487.383L160.49 487.383L160.651 487.383L160.811 487.383L160.971 487.383L161.131 487.383L161.292 487.383L161.452 487.383L161.612 487.383L161.772 487.383L161.933 487.383L162.093 487.383L162.253 487.383L162.413 487.383L162.573 487.383L162.734 487.383L162.734 487.383L162.889 487.385L163.034 487.393L163.169 487.405L163.294 487.423L163.41 487.445L163.515 487.473L163.61 487.505L163.695 487.543L163.77 487.585L163.835 487.633L163.89 487.686L163.935 487.743L163.97 487.806L163.995 487.873L164.011 487.946L164.016 488.024L164.011 488.106L163.995 488.194L163.97 488.286L163.935 488.384L163.89 488.487L163.835 488.594L163.77 488.707L163.695 488.825L163.61 488.947L163.515 489.075L163.41 489.208L163.294 489.345L163.169 489.488L163.034 489.636L162.889 489.789L162.734 489.946L162.734 489.946L162.571 490.109L162.403 490.277L162.23 490.45L162.053 490.627L161.87 490.81L161.682 490.998L161.489 491.191L161.292 491.388L161.089 491.591L160.881 491.799L160.668 492.012L160.45 492.23L160.228 492.452L160 492.68L159.767 492.913L159.529 493.151L159.286 493.394L159.038 493.642L158.785 493.895L158.528 494.152L158.265 494.415L157.997 494.683L157.724 494.956L157.446 495.234L157.163 495.517L156.875 495.805L156.582 496.098L156.284 496.396L155.981 496.699L155.673 497.007L155.36 497.32L155.043 497.637"/>
<path class="l5" d="M612.237 274.595L613.946 274.595L613.946 276.304L612.237 276.304L612.237 274.595z"/>
<path class="l6" d="M315.702 507.892L859.207 507.892"/>
<path class="l6" d="M52.4943 507.892L96.9318 507.892"/>
<path class="l1" d="M134.533 172.901L134.533 213.921"/>
<path class="l1" d="M134.533 336.979L134.533 377.998"/>
<path class="l1" d="M134.533 254.94L134.533 295.959"/>
<path class="l1" d="M66.1674 172.901L380.649 172.901"/>
<path class="l1" d="M66.1674 377.998L380.649 377.998"/>
<path class="l1" d="M66.1674 275.45L93.5136 275.45"/>
<path class="l1" d="M93.5136 234.43L93.5136 275.45"/>
<path class="l1" d="M93.5136 234.43L107.187 234.43"/>
<path class="l1" d="M93.5136 275.45L93.5136 316.469"/>
<path class="l1" d="M93.5136 316.469L107.187 316.469"/>
<path class="l1" d="M134.533 213.921L134.533 234.43"/>
<path class="l1" d="M134.533 316.469L134.533 336.979"/>
<path class="l1" d="M134.533 275.45L223.408 275.45"/>
<path class="l1" d="M291.774 172.901L291.774 213.921"/>
<path class="l1" d="M291.774 336.979L291.774 377.998"/>
<path class="l1" d="M291.774 254.94L291.774 295.959"/>
<path class="l1" d="M223.408 275.45L250.754 275.45"/>
<path class="l1" d="M250.754 234.43L250.754 275.45"/>
<path class="l1" d="M250.754 234.43L264.427 234.43"/>
<path class="l1" d="M250.754 275.45L250.754 316.469"/>
<path class="l1" d="M250.754 316.469L264.427 316.469"/>
<path class="l1" d="M291.774 213.921L291.774 234.43"/>
<path class="l1" d="M291.774 316.469L291.774 336.979"/>
<path class="l1" d="M291.774 275.45L380.649 275.45"/>
<path class="l1" d="M544.726 172.901L859.207 172.901"/>
<path class="l1" d="M749.823 172.901L749.823 213.921"/>
<path class="l1" d="M613.092 172.901L613.092 213.921"/>
<path class="l1" d="M613.092 213.921L613.092 234.43"/>
<path class="l1" d="M749.823 213.921L749.823 234.43"/>
<path class="l1" d="M613.092 254.94L613.092 295.959"/>
<path class="l1" d="M749.823 254.94L749.823 295.959"/>
<path class="l1" d="M572.072 316.469L585.745 316.469"/>
<path class="l1" d="M708.803 316.469L722.476 316.469"/>
<path class="l1" d="M701.967 234.43L722.476 234.43"/>
<path class="l1" d="M640.438 234.43L660.947 234.43"/>
<path class="l1" d="M380.649 377.998L859.207 377.998"/>
<path class="l1" d="M613.092 336.979L613.092 377.998"/>
<path class="l1" d="M749.823 336.979L749.823 377.998"/>
<path class="l1" d="M749.823 316.469L749.823 336.979"/>
<path class="l1" d="M613.092 316.469L613.092 336.979"/>
<path class="l1" d="M749.823 275.45L859.207 275.45"/>
<path class="l1" d="M613.092 275.45L660.947 275.45"/>
<path class="l1" d="M701.967 275.45L749.823 275.45"/>
<path class="l1" d="M660.947 234.43L701.967 275.45"/>
<path class="l1" d="M660.947 275.45L701.967 234.43"/>
<circle class="l1" cx="134.533" cy="275.45" r="2.52952"/>
<circle class="l1" cx="93.5136" cy="275.45" r="2.52952"/>
<circle class="l1" cx="93.5136" cy="275.45" r="2.52952"/>
<circle class="l1" cx="93.5136" cy="275.45" r="2.52952"/>
<circle class="l1" cx="134.533" cy="377.998" r="2.52952"/>
<circle class="l1" cx="134.533" cy="172.901" r="2.52952"/>
<circle class="l1" cx="291.774" cy="275.45" r="2.52952"/>
<circle class="l1" cx="250.754" cy="275.45" r="2.52952"/>
<circle class="l1" cx="250.754" cy="275.45" r="2.52952"/>
<circle class="l1" cx="250.754" cy="275.45" r="2.52952"/>
<circle class="l1" cx="291.774" cy="377.998" r="2.52952"/>
<circle class="l1" cx="291.774" cy="172.901" r="2.52952"/>
<circle class="l1" cx="749.823" cy="275.45" r="2.52952"/>
<circle class="l1" cx="613.092" cy="275.45" r="2.52952"/>
<circle class="l1" cx="749.823" cy="275.45" r="2.52952"/>
<circle class="l1" cx="749.823" cy="377.998" r="2.52952"/>
<circle class="l1" cx="613.092" cy="377.998" r="2.52952"/>
<circle class="l1" cx="613.092" cy="172.901" r="2.52952"/>
<circle class="l1" cx="749.823" cy="172.901" r="2.52952"/>
</svg>
