<svg xmlns="http://www.w3.org/2000/svg" xmlns:xlink="http://www.w3.org/1999/xlink" width="1000" height="700" version="1.1">
<style type="text/css">
.l0{
  fill: #000000;
  stroke: #000000;
  stroke-linecap:round;
  stroke-linejoin:round;
  stroke-width: 0.585302;
}
.l1{
  fill: #00ccee;
  stroke: #00ccee;
  stroke-linecap:round;
  stroke-linejoin:round;
  stroke-width: 0.585302;
}
.l2{
  fill: #4f4f4f; fill-opacity: 0.2;
  stroke: #4f4f4f;
  stroke-linecap:round;
  stroke-linejoin:round;
  stroke-width: 0.585302;
}
.l3{
  fill: #cccccc; fill-opacity: 0.5;
  stroke: #cccccc;
  stroke-linecap:round;
  stroke-linejoin:round;
  stroke-width: 0.585302;
}
.l4{
  fill: #88dd00;
  stroke: #88dd00;
  stroke-linecap:round;
  stroke-linejoin:round;
  stroke-width: 0.585302;
}
.l5{
  fill: #bb2200;
  stroke: #bb2200;
  stroke-linecap:round;
  stroke-linejoin:round;
  stroke-width: 0.585302;
}
.l6{
  fill: #00ccee; fill-opacity: 0.5;
  stroke: #00ccee;
  stroke-linecap:round;
  stroke-linejoin:round;
  stroke-width: 0.585302;
}
.l7{
  fill: #ff0000; fill-opacity: 0.5;
  stroke: #ff0000;
  stroke-linecap:round;
  stroke-linejoin:round;
  stroke-width: 0.585302;
}
.l8{
  fill: #ffff00; fill-opacity: 0.5;
  stroke: #ffff00;
  stroke-linecap:round;
  stroke-linejoin:round;
  stroke-width: 0.585302;
}
.l9{
  fill: #ffffff; fill-opacity: 0.5;
  stroke: #ffffff;
  stroke-linecap:round;
  stroke-linejoin:round;
  stroke-width: 0.585302;
}
.l10{
  fill: #ff00ff;
  stroke: #ff00ff;
  stroke-linecap:round;
  stroke-linejoin:round;
  stroke-width: 0.585302;
}
.l11{
  fill: #00ff00; fill-opacity: 0.5;
  stroke: #00ff00;
  stroke-linecap:round;
  stroke-linejoin:round;
  stroke-width: 0.585302;
}
.l12{
  fill: #0000ff; fill-opacity: 0.5;
  stroke: #0000ff;
  stroke-linecap:round;
  stroke-linejoin:round;
  stroke-width: 0.585302;
}
.l13{
  fill: #aaaa00; fill-opacity: 0.5;
  stroke: #aaaa00;
  stroke-linecap:round;
  stroke-linejoin:round;
  stroke-width: 0.585302;
}
.l14{
  fill: #aaccaa; fill-opacity: 0.2;
  stroke: #aaccaa;
  stroke-linecap:round;
  stroke-linejoin:round;
  stroke-width: 0.585302;
}
.l15{
  fill: #ff7777; fill-opacity: 0.5;
  stroke: #ff7777;
  stroke-linecap:round;
  stroke-linejoin:round;
  stroke-width: 0.585302;
}
.l16{
  fill: #bfff81; fill-opacity: 0.5;
  stroke: #bfff81;
  stroke-linecap:round;
  stroke-linejoin:round;
  stroke-width: 0.585302;
}
.l17{
  fill: #00ffcc; fill-opacity: 0.2;
  stroke: #00ffcc;
  stroke-linecap:round;
  stroke-linejoin:round;
  stroke-width: 0.585302;
}
.l18{
  fill: #ce0097; fill-opacity: 0.5;
  stroke: #ce0097;
  stroke-linecap:round;
  stroke-linejoin:round;
  stroke-width: 0.585302;
}
.l19{
  fill: #d2d46b; fill-opacity: 0.2;
  stroke: #d2d46b;
  stroke-linecap:round;
  stroke-linejoin:round;
  stroke-width: 0.585302;
}
.l20{
  fill: #ef6158; fill-opacity: 0.2;
  stroke: #ef6158;
  stroke-linecap:round;
  stroke-linejoin:round;
  stroke-width: 0.585302;
}
.l21{
  fill: #fdb200; fill-opacity: 0.2;
  stroke: #fdb200;
  stroke-linecap:round;
  stroke-linejoin:round;
  stroke-width: 0.585302;
}
text {font-family: Sans-Serif;}
</style>
<rect class="l0" x="0" y="0" width="1000" height="700"/>
<text fill="#00ccee"  xml:space="preserve" font-size="9.29981" transform="translate(44.6129, 294.605)" >IN</text>
<text fill="#00ccee"  xml:space="preserve" font-size="9.29981" transform="translate(27.0202, 375.053)" >VGND</text>
<text fill="#00ccee"  xml:space="preserve" font-size="9.29981" transform="translate(324.909, 294.605)" >OUT</text>
<text fill="#00ccee"  xml:space="preserve" font-size="7.60893" transform="translate(174.519, 288.406)" >n</text>
<text fill="#00ccee"  xml:space="preserve" font-size="9.29981" transform="translate(14.0202, 212.468)" >VDDOUT</text>
<text fill="#cccccc"  xml:space="preserve" font-size="5.63625" transform="translate(227.488, 312.279)" >M3</text>
<text fill="#ff0000"  xml:space="preserve" font-size="4.22718" transform="translate(244.972, 336.742)" >S</text>
<text fill="#ff0000"  xml:space="preserve" font-size="4.22718" transform="translate(244.972, 312.925)" >D</text>
<text fill="#ff0000"  xml:space="preserve" font-size="4.22718" transform="translate(243.617, 321.838)" >B</text>
<text fill="#ff0000"  xml:space="preserve" font-size="4.22718" transform="translate(224.358, 321.838)" >G</text>
<text fill="#cccccc"  xml:space="preserve" font-size="5.63625" transform="translate(249.036, 317.33)" >nfet_01v8</text>
<text fill="#aaaa00"  xml:space="preserve" font-size="5.63625" transform="translate(249.714, 335.989)" >1 x 0.42 / 0.15</text>
<text fill="#aaaa00"  xml:space="preserve" font-size="5.63625" transform="translate(249.714, 329.214)" >nf=1</text>
<text fill="#cccccc"  xml:space="preserve" font-size="5.63625" transform="translate(226.488, 247.245)" >M4</text>
<text fill="#ff0000"  xml:space="preserve" font-size="4.22718" transform="translate(244.972, 271.708)" >D</text>
<text fill="#ff0000"  xml:space="preserve" font-size="4.22718" transform="translate(244.972, 247.891)" >S</text>
<text fill="#ff0000"  xml:space="preserve" font-size="4.22718" transform="translate(243.617, 256.804)" >B</text>
<text fill="#ff0000"  xml:space="preserve" font-size="4.22718" transform="translate(224.358, 256.804)" >G</text>
<text fill="#cccccc"  xml:space="preserve" font-size="5.63625" transform="translate(249.036, 252.297)" >pfet_01v8</text>
<text fill="#aaaa00"  xml:space="preserve" font-size="5.63625" transform="translate(249.714, 270.955)" >1 x 1 / 0.15</text>
<text fill="#aaaa00"  xml:space="preserve" font-size="5.63625" transform="translate(249.714, 264.181)" >nf=1</text>
<text fill="#cccccc"  xml:space="preserve" font-size="5.63625" transform="translate(102.84, 247.245)" >M5</text>
<text fill="#ff0000"  xml:space="preserve" font-size="4.22718" transform="translate(120.324, 271.708)" >D</text>
<text fill="#ff0000"  xml:space="preserve" font-size="4.22718" transform="translate(120.324, 247.891)" >S</text>
<text fill="#ff0000"  xml:space="preserve" font-size="4.22718" transform="translate(118.969, 256.804)" >B</text>
<text fill="#ff0000"  xml:space="preserve" font-size="4.22718" transform="translate(98.6946, 256.804)" >G</text>
<text fill="#cccccc"  xml:space="preserve" font-size="5.63625" transform="translate(124.389, 252.297)" >pfet_g5v0d10v5</text>
<text fill="#aaaa00"  xml:space="preserve" font-size="5.63625" transform="translate(125.066, 270.955)" >1 x 0.42 / 0.5</text>
<text fill="#aaaa00"  xml:space="preserve" font-size="5.63625" transform="translate(125.066, 264.181)" >nf=1</text>
<text fill="#cccccc"  xml:space="preserve" font-size="5.63625" transform="translate(102.84, 312.279)" >M6</text>
<text fill="#ff0000"  xml:space="preserve" font-size="4.22718" transform="translate(120.324, 336.742)" >S</text>
<text fill="#ff0000"  xml:space="preserve" font-size="4.22718" transform="translate(120.324, 312.925)" >D</text>
<text fill="#ff0000"  xml:space="preserve" font-size="4.22718" transform="translate(118.969, 321.838)" >B</text>
<text fill="#ff0000"  xml:space="preserve" font-size="4.22718" transform="translate(99.7107, 321.838)" >G</text>
<text fill="#cccccc"  xml:space="preserve" font-size="5.63625" transform="translate(124.389, 317.33)" >nfet_g5v0d10v5</text>
<text fill="#aaaa00"  xml:space="preserve" font-size="5.63625" transform="translate(125.066, 335.989)" >1 x 1 / 0.5</text>
<text fill="#aaaa00"  xml:space="preserve" font-size="5.63625" transform="translate(125.066, 329.214)" >nf=1</text>
<text fill="#cccccc"  xml:space="preserve" font-size="11.2725" transform="translate(268.004, 488.109)" >         /home/leo/Projects/tt08-aicd-playground/dependencies/sky130_leo_ip__levelshifter/xschem/sky130_leo_ip__levelshifter_down.sch</text>
<text fill="#cccccc"  xml:space="preserve" font-size="11.2725" transform="translate(268.004, 471.851)" >Leo Moser</text>
<text fill="#cccccc"  xml:space="preserve" font-size="11.2725" transform="translate(589.433, 471.851)" >2024-08-20  14:29:57</text>
<text fill="#cccccc"  xml:space="preserve" font-size="28.1812" transform="translate(143.357, 487.204)" >SCHEM</text>
<path class="l4" d="M236.843 311.225L236.843 335.613"/>
<path class="l4" d="M221.939 323.419L234.133 323.419"/>
<path class="l4" d="M243.617 307.161L243.617 313.935"/>
<path class="l4" d="M243.617 332.903L243.617 339.678"/>
<path class="l4" d="M234.133 315.29L234.133 331.548"/>
<path class="l4" d="M236.843 313.935L243.617 313.935"/>
<path class="l4" d="M236.843 332.903L240.907 332.903"/>
<path class="l4" d="M240.907 331.548L243.617 332.903L240.907 334.258L240.907 331.548"/>
<path class="l4" d="M236.843 246.192L236.843 270.579"/>
<path class="l4" d="M243.617 242.127L243.617 248.902"/>
<path class="l4" d="M243.617 267.87L243.617 274.644"/>
<path class="l4" d="M234.133 250.256L234.133 266.515"/>
<path class="l4" d="M236.843 267.87L243.617 267.87"/>
<path class="l4" d="M239.552 248.902L243.617 248.902"/>
<path class="l4" d="M221.939 258.386L228.713 258.386"/>
<path class="l4" d="M239.552 247.547L236.843 248.902L239.552 250.256L239.552 247.547"/>
<circle class="l4" cx="231.423" cy="258.386" r="2.70973" style="fill:none;" />
<path class="l4" d="M118.969 242.127L118.969 248.902"/>
<path class="l4" d="M118.969 267.87L118.969 274.644"/>
<path class="l4" d="M112.195 267.87L118.969 267.87"/>
<path class="l4" d="M114.905 248.902L118.969 248.902"/>
<path class="l4" d="M97.2913 258.386L101.356 258.386"/>
<path class="l4" d="M112.195 246.192L112.195 270.579"/>
<path class="l4" d="M114.905 247.547L112.195 248.902L114.905 250.256L114.905 247.547"/>
<path class="l4" style="fill:none;" d="M106.775 266.515L106.775 250.256L109.485 250.256L109.485 266.515L106.775 266.515"/>
<circle class="l4" cx="104.066" cy="258.386" r="2.70973" style="fill:none;" />
<path class="l4" d="M118.969 307.161L118.969 313.935"/>
<path class="l4" d="M118.969 332.903L118.969 339.678"/>
<path class="l4" d="M112.195 313.935L118.969 313.935"/>
<path class="l4" d="M112.195 332.903L116.259 332.903"/>
<path class="l4" d="M112.195 311.225L112.195 335.613"/>
<path class="l4" d="M97.2913 323.419L106.775 323.419"/>
<path class="l4" d="M116.259 331.548L118.969 332.903L116.259 334.258L116.259 331.548"/>
<path class="l4" style="fill:none;" d="M106.775 331.548L106.775 315.29L109.485 315.29L109.485 331.548L106.775 331.548"/>
<path class="l5" d="M62.0647 290.902L64.7744 290.902"/>
<path class="l5" d="M62.0647 290.902L60.0324 288.193L55.2904 288.193L57.3227 290.902L55.2904 293.612L60.0324 293.612L62.0647 290.902"/>
<path class="l5" d="M64.097 290.225L65.4519 290.225L65.4519 291.58L64.097 291.58L64.097 290.225z"/>
<path class="l5" d="M63.0809 372.194L64.7744 372.194"/>
<path class="l5" d="M57.3227 369.485L55.2904 372.194L57.3227 374.904L61.0486 374.904L63.0809 372.194L61.0486 369.485L57.3227 369.485"/>
<path class="l5" d="M64.097 371.517L65.4519 371.517L65.4519 372.872L64.097 372.872L64.097 371.517z"/>
<path class="l5" d="M314.07 290.902L318.812 290.902"/>
<path class="l5" d="M323.554 290.902L321.522 288.193L316.78 288.193L318.812 290.902L316.78 293.612L321.522 293.612L323.554 290.902"/>
<path class="l5" d="M313.393 290.225L314.747 290.225L314.747 291.58L313.393 291.58L313.393 290.225z"/>
<path class="l5" d="M243.617 322.064L240.907 323.419L243.617 324.774L243.617 322.064"/>
<path class="l5" d="M242.262 305.806L244.972 305.806L244.972 308.516L242.262 308.516L242.262 305.806z"/>
<path class="l5" d="M220.584 322.064L223.294 322.064L223.294 324.774L220.584 324.774L220.584 322.064z"/>
<path class="l5" d="M242.262 338.323L244.972 338.323L244.972 341.032L242.262 341.032L242.262 338.323z"/>
<path class="l5" d="M243.575 323.377L243.659 323.377L243.659 323.462L243.575 323.462L243.575 323.377z"/>
<path class="l5" d="M240.907 257.031L243.617 258.386L240.907 259.74L240.907 257.031"/>
<path class="l5" d="M242.262 273.289L244.972 273.289L244.972 275.999L242.262 275.999L242.262 273.289z"/>
<path class="l5" d="M220.584 257.031L223.294 257.031L223.294 259.74L220.584 259.74L220.584 257.031z"/>
<path class="l5" d="M242.262 240.772L244.972 240.772L244.972 243.482L242.262 243.482L242.262 240.772z"/>
<path class="l5" d="M243.575 258.343L243.659 258.343L243.659 258.428L243.575 258.428L243.575 258.343z"/>
<path class="l5" d="M172.486 290.225L173.841 290.225L173.841 291.58L172.486 291.58L172.486 290.225z"/>
<path class="l5" d="M63.0809 209.61L64.7744 209.61"/>
<path class="l5" d="M57.3227 206.901L55.2904 209.61L57.3227 212.32L61.0486 212.32L63.0809 209.61L61.0486 206.901L57.3227 206.901"/>
<path class="l5" d="M64.097 208.933L65.4519 208.933L65.4519 210.288L64.097 210.288L64.097 208.933z"/>
<path class="l5" d="M116.259 257.031L118.969 258.386L116.259 259.74L116.259 257.031"/>
<path class="l5" d="M117.614 273.289L120.324 273.289L120.324 275.999L117.614 275.999L117.614 273.289z"/>
<path class="l5" d="M95.9364 257.031L98.6461 257.031L98.6461 259.74L95.9364 259.74L95.9364 257.031z"/>
<path class="l5" d="M117.614 240.772L120.324 240.772L120.324 243.482L117.614 243.482L117.614 240.772z"/>
<path class="l5" d="M118.927 258.343L119.011 258.343L119.011 258.428L118.927 258.428L118.927 258.343z"/>
<path class="l5" d="M118.969 322.064L116.259 323.419L118.969 324.774L118.969 322.064"/>
<path class="l5" d="M117.614 305.806L120.324 305.806L120.324 308.516L117.614 308.516L117.614 305.806z"/>
<path class="l5" d="M95.9364 322.064L98.6461 322.064L98.6461 324.774L95.9364 324.774L95.9364 322.064z"/>
<path class="l5" d="M117.614 338.323L120.324 338.323L120.324 341.032L117.614 341.032L117.614 338.323z"/>
<path class="l5" d="M118.927 323.377L119.011 323.377L119.011 323.462L118.927 323.462L118.927 323.377z"/>
<path class="l5" d="M135.228 467.035L135.058 467.204L134.889 467.374L134.719 467.543L134.55 467.713L134.381 467.882L134.211 468.051L134.042 468.221L133.873 468.39L133.703 468.559L133.534 468.729L133.365 468.898L133.195 469.067L133.026 469.237L132.857 469.406L132.687 469.575L132.518 469.745L132.348 469.914L132.179 470.084L132.01 470.253L131.84 470.422L131.671 470.592L131.502 470.761L131.332 470.93L131.163 471.1L130.994 471.269L130.824 471.438L130.655 471.608L130.485 471.777L130.316 471.946L130.147 472.116L129.977 472.285L129.808 472.455L129.808 472.455L129.644 472.624L129.491 472.793L129.348 472.963L129.215 473.132L129.094 473.301L128.982 473.471L128.882 473.64L128.792 473.809L128.713 473.979L128.644 474.148L128.585 474.317L128.538 474.487L128.501 474.656L128.474 474.826L128.458 474.995L128.453 475.164L128.458 475.334L128.474 475.503L128.501 475.672L128.538 475.842L128.585 476.011L128.644 476.18L128.713 476.35L128.792 476.519L128.882 476.689L128.982 476.858L129.094 477.027L129.215 477.197L129.348 477.366L129.491 477.535L129.644 477.705L129.808 477.874L129.808 477.874L129.978 478.044L130.149 478.215L130.322 478.388L130.496 478.562L130.671 478.737L130.848 478.914L131.026 479.092L131.205 479.271L131.386 479.452L131.568 479.634L131.751 479.817L131.936 480.002L132.122 480.187L132.309 480.375L132.497 480.563L132.687 480.753L132.878 480.944L133.071 481.137L133.265 481.331L133.46 481.526L133.656 481.722L133.854 481.92L134.053 482.119L134.254 482.32L134.455 482.521L134.659 482.725L134.863 482.929L135.069 483.135L135.276 483.342L135.484 483.55L135.694 483.76L135.905 483.971L135.905 483.971L136.115 484.181L136.323 484.389L136.528 484.594L136.731 484.797L136.93 484.996L137.128 485.193L137.322 485.388L137.514 485.58L137.703 485.769L137.89 485.956L138.074 486.14L138.255 486.321L138.433 486.499L138.609 486.675L138.783 486.849L138.953 487.019L139.121 487.187L139.287 487.353L139.45 487.516L139.61 487.676L139.767 487.833L139.922 487.988L140.074 488.14L140.224 488.29L140.37 488.436L140.515 488.581L140.656 488.722L140.795 488.861L140.931 488.997L141.065 489.131L141.196 489.262L141.324 489.39L141.324 489.39L141.447 489.515L141.563 489.636L141.67 489.754L141.769 489.867L141.86 489.976L141.944 490.081L142.019 490.182L142.087 490.28L142.146 490.373L142.198 490.462L142.241 490.547L142.277 490.629L142.305 490.706L142.325 490.78L142.337 490.849L142.341 490.915L142.337 490.976L142.325 491.034L142.305 491.087L142.277 491.137L142.241 491.183L142.198 491.224L142.146 491.262L142.087 491.296L142.019 491.325L141.944 491.351L141.86 491.373L141.769 491.391L141.67 491.405L141.563 491.415L141.447 491.421L141.324 491.423L141.324 491.423L141.197 491.423L141.07 491.423L140.943 491.423L140.816 491.423L140.689 491.423L140.562 491.423L140.435 491.423L140.308 491.423L140.181 491.423L140.054 491.423L139.927 491.423L139.8 491.423L139.673 491.423L139.546 491.423L139.419 491.423L139.292 491.423L139.165 491.423L139.038 491.423L138.911 491.423L138.784 491.423L138.657 491.423L138.53 491.423L138.403 491.423L138.276 491.423L138.149 491.423L138.022 491.423L137.895 491.423L137.768 491.423L137.641 491.423L137.514 491.423L137.387 491.423L137.26 491.423L137.26 491.423L137.133 491.423L137.008 491.423L136.885 491.423L136.762 491.423L136.641 491.423L136.522 491.423L136.403 491.423L136.286 491.423L136.17 491.423L136.056 491.423L135.943 491.423L135.831 491.423L135.72 491.423L135.611 491.423L135.503 491.423L135.397 491.423L135.292 491.423L135.188 491.423L135.085 491.423L134.984 491.423L134.884 491.423L134.786 491.423L134.688 491.423L134.592 491.423L134.498 491.423L134.405 491.423L134.313 491.423L134.222 491.423L134.133 491.423L134.045 491.423L133.958 491.423L133.873 491.423L133.873 491.423L133.788 491.421L133.703 491.417L133.619 491.411L133.534 491.402L133.449 491.39L133.365 491.375L133.28 491.358L133.195 491.338L133.111 491.316L133.026 491.29L132.941 491.263L132.857 491.232L132.772 491.199L132.687 491.163L132.602 491.125L132.518 491.084L132.433 491.04L132.348 490.994L132.264 490.945L132.179 490.893L132.094 490.839L132.01 490.782L131.925 490.723L131.84 490.661L131.756 490.596L131.671 490.528L131.586 490.458L131.502 490.385L131.417 490.31L131.332 490.232L131.248 490.151L131.163 490.068L131.163 490.068L131.078 489.983L130.994 489.898L130.909 489.814L130.824 489.729L130.74 489.644L130.655 489.56L130.57 489.475L130.485 489.39L130.401 489.306L130.316 489.221L130.231 489.136L130.147 489.052L130.062 488.967L129.977 488.882L129.893 488.798L129.808 488.713L129.723 488.628L129.639 488.544L129.554 488.459L129.469 488.374L129.385 488.29L129.3 488.205L129.215 488.12L129.131 488.036L129.046 487.951L128.961 487.866L128.877 487.781L128.792 487.697L128.707 487.612L128.623 487.527L128.538 487.443L128.453 487.358L128.453 487.358L128.367 487.272L128.279 487.183L128.187 487.092L128.093 486.998L127.997 486.902L127.897 486.802L127.796 486.701L127.691 486.596L127.584 486.489L127.474 486.379L127.362 486.267L127.247 486.151L127.129 486.034L127.008 485.913L126.885 485.79L126.76 485.665L126.631 485.536L126.5 485.405L126.367 485.272L126.23 485.135L126.091 484.996L125.95 484.855L125.806 484.711L125.659 484.564L125.509 484.414L125.357 484.262L125.202 484.107L125.045 483.95L124.885 483.79L124.722 483.627L124.557 483.462L124.389 483.293L124.389 483.293L124.219 483.129L124.05 482.976L123.881 482.833L123.711 482.701L123.542 482.579L123.372 482.468L123.203 482.367L123.034 482.277L122.864 482.198L122.695 482.129L122.526 482.071L122.356 482.023L122.187 481.986L122.018 481.96L121.848 481.944L121.679 481.939L121.509 481.944L121.34 481.96L121.171 481.986L121.001 482.023L120.832 482.071L120.663 482.129L120.493 482.198L120.324 482.277L120.155 482.367L119.985 482.468L119.816 482.579L119.647 482.701L119.477 482.833L119.308 482.976L119.138 483.129L118.969 483.293L118.969 483.293L118.801 483.462L118.636 483.627L118.473 483.79L118.313 483.95L118.155 484.107L118.001 484.262L117.848 484.414L117.699 484.564L117.552 484.711L117.408 484.855L117.266 484.996L117.127 485.135L116.991 485.272L116.857 485.405L116.726 485.536L116.598 485.665L116.472 485.79L116.349 485.913L116.229 486.034L116.111 486.151L115.996 486.267L115.884 486.379L115.774 486.489L115.667 486.596L115.562 486.701L115.46 486.802L115.361 486.902L115.264 486.998L115.17 487.092L115.079 487.183L114.991 487.272L114.905 487.358L114.905 487.358L114.82 487.443L114.735 487.527L114.65 487.612L114.566 487.697L114.481 487.781L114.396 487.866L114.312 487.951L114.227 488.036L114.142 488.12L114.058 488.205L113.973 488.29L113.888 488.374L113.804 488.459L113.719 488.544L113.634 488.628L113.55 488.713L113.465 488.798L113.38 488.882L113.296 488.967L113.211 489.052L113.126 489.136L113.042 489.221L112.957 489.306L112.872 489.39L112.788 489.475L112.703 489.56L112.618 489.644L112.534 489.729L112.449 489.814L112.364 489.898L112.279 489.983L112.195 490.068L112.195 490.068L112.11 490.151L112.025 490.232L111.941 490.31L111.856 490.385L111.771 490.458L111.687 490.528L111.602 490.596L111.517 490.661L111.433 490.723L111.348 490.782L111.263 490.839L111.179 490.893L111.094 490.945L111.009 490.994L110.925 491.04L110.84 491.084L110.755 491.125L110.671 491.163L110.586 491.199L110.501 491.232L110.417 491.263L110.332 491.29L110.247 491.316L110.162 491.338L110.078 491.358L109.993 491.375L109.908 491.39L109.824 491.402L109.739 491.411L109.654 491.417L109.57 491.421L109.485 491.423L109.485 491.423L109.4 491.423L109.313 491.423L109.225 491.423L109.136 491.423L109.045 491.423L108.953 491.423L108.86 491.423L108.765 491.423L108.669 491.423L108.572 491.423L108.474 491.423L108.374 491.423L108.272 491.423L108.17 491.423L108.066 491.423L107.961 491.423L107.854 491.423L107.746 491.423L107.637 491.423L107.527 491.423L107.415 491.423L107.302 491.423L107.187 491.423L107.072 491.423L106.955 491.423L106.836 491.423L106.716 491.423L106.595 491.423L106.473 491.423L106.349 491.423L106.224 491.423L106.098 491.423L106.098 491.423L105.971 491.423L105.844 491.423L105.717 491.423L105.59 491.423L105.463 491.423L105.336 491.423L105.209 491.423L105.082 491.423L104.955 491.423L104.828 491.423L104.701 491.423L104.574 491.423L104.447 491.423L104.32 491.423L104.193 491.423L104.066 491.423L103.939 491.423L103.812 491.423L103.685 491.423L103.558 491.423L103.43 491.423L103.303 491.423L103.176 491.423L103.049 491.423L102.922 491.423L102.795 491.423L102.668 491.423L102.541 491.423L102.414 491.423L102.287 491.423L102.16 491.423L102.033 491.423L102.033 491.423L101.91 491.421L101.795 491.415L101.688 491.405L101.589 491.391L101.497 491.373L101.414 491.351L101.339 491.325L101.271 491.296L101.212 491.262L101.16 491.224L101.116 491.183L101.081 491.137L101.053 491.087L101.033 491.034L101.021 490.976L101.017 490.915L101.021 490.849L101.033 490.78L101.053 490.706L101.081 490.629L101.116 490.547L101.16 490.462L101.212 490.373L101.271 490.28L101.339 490.182L101.414 490.081L101.497 489.976L101.589 489.867L101.688 489.754L101.795 489.636L101.91 489.515L102.033 489.39L102.033 489.39L102.162 489.262L102.293 489.131L102.426 488.997L102.563 488.861L102.701 488.722L102.843 488.581L102.987 488.436L103.134 488.29L103.284 488.14L103.436 487.988L103.591 487.833L103.748 487.676L103.908 487.516L104.071 487.353L104.236 487.187L104.404 487.019L104.575 486.849L104.748 486.675L104.924 486.499L105.103 486.321L105.284 486.14L105.468 485.956L105.655 485.769L105.844 485.58L106.036 485.388L106.23 485.193L106.427 484.996L106.627 484.797L106.83 484.594L107.035 484.389L107.242 484.181L107.453 483.971L107.453 483.971L107.664 483.76L107.874 483.55L108.082 483.342L108.289 483.135L108.495 482.929L108.699 482.725L108.902 482.521L109.104 482.32L109.304 482.119L109.504 481.92L109.701 481.722L109.898 481.526L110.093 481.331L110.287 481.137L110.479 480.944L110.671 480.753L110.86 480.563L111.049 480.375L111.236 480.187L111.422 480.002L111.607 479.817L111.79 479.634L111.972 479.452L112.152 479.271L112.332 479.092L112.51 478.914L112.686 478.737L112.862 478.562L113.036 478.388L113.208 478.215L113.38 478.044L113.55 477.874L113.55 477.874L113.714 477.705L113.867 477.535L114.01 477.366L114.142 477.197L114.264 477.027L114.375 476.858L114.476 476.689L114.566 476.519L114.645 476.35L114.714 476.18L114.772 476.011L114.82 475.842L114.857 475.672L114.883 475.503L114.899 475.334L114.905 475.164L114.899 474.995L114.883 474.826L114.857 474.656L114.82 474.487L114.772 474.317L114.714 474.148L114.645 473.979L114.566 473.809L114.476 473.64L114.375 473.471L114.264 473.301L114.142 473.132L114.01 472.963L113.867 472.793L113.714 472.624L113.55 472.455L113.55 472.455L113.38 472.285L113.208 472.113L113.036 471.941L112.862 471.767L112.686 471.591L112.51 471.415L112.332 471.237L112.152 471.057L111.972 470.877L111.79 470.695L111.607 470.512L111.422 470.327L111.236 470.141L111.049 469.954L110.86 469.765L110.671 469.575L110.479 469.384L110.287 469.192L110.093 468.998L109.898 468.803L109.701 468.606L109.504 468.408L109.304 468.209L109.104 468.009L108.902 467.807L108.699 467.604L108.495 467.4L108.289 467.194L108.082 466.987L107.874 466.778L107.664 466.569L107.453 466.358L107.453 466.358L107.242 466.147L107.035 465.94L106.83 465.734L106.627 465.532L106.427 465.332L106.23 465.135L106.036 464.941L105.844 464.749L105.655 464.56L105.468 464.373L105.284 464.189L105.103 464.008L104.924 463.829L104.748 463.653L104.575 463.48L104.404 463.309L104.236 463.141L104.071 462.976L103.908 462.813L103.748 462.653L103.591 462.495L103.436 462.341L103.284 462.189L103.134 462.039L102.987 461.892L102.843 461.748L102.701 461.606L102.563 461.467L102.426 461.331L102.293 461.198L102.162 461.067L102.033 460.938L102.033 460.938L101.91 460.813L101.795 460.692L101.688 460.575L101.589 460.462L101.497 460.353L101.414 460.248L101.339 460.146L101.271 460.049L101.212 459.956L101.16 459.866L101.116 459.781L101.081 459.7L101.053 459.622L101.033 459.549L101.021 459.479L101.017 459.414L101.021 459.352L101.033 459.295L101.053 459.241L101.081 459.192L101.116 459.146L101.16 459.104L101.212 459.067L101.271 459.033L101.339 459.003L101.414 458.977L101.497 458.956L101.589 458.938L101.688 458.924L101.795 458.914L101.91 458.908L102.033 458.906L102.033 458.906L102.16 458.906L102.287 458.906L102.414 458.906L102.541 458.906L102.668 458.906L102.795 458.906L102.922 458.906L103.049 458.906L103.176 458.906L103.303 458.906L103.43 458.906L103.558 458.906L103.685 458.906L103.812 458.906L103.939 458.906L104.066 458.906L104.193 458.906L104.32 458.906L104.447 458.906L104.574 458.906L104.701 458.906L104.828 458.906L104.955 458.906L105.082 458.906L105.209 458.906L105.336 458.906L105.463 458.906L105.59 458.906L105.717 458.906L105.844 458.906L105.971 458.906L106.098 458.906L106.098 458.906L106.224 458.906L106.349 458.906L106.473 458.906L106.595 458.906L106.716 458.906L106.836 458.906L106.955 458.906L107.072 458.906L107.187 458.906L107.302 458.906L107.415 458.906L107.527 458.906L107.637 458.906L107.746 458.906L107.854 458.906L107.961 458.906L108.066 458.906L108.17 458.906L108.272 458.906L108.374 458.906L108.474 458.906L108.572 458.906L108.669 458.906L108.765 458.906L108.86 458.906L108.953 458.906L109.045 458.906L109.136 458.906L109.225 458.906L109.313 458.906L109.4 458.906L109.485 458.906L109.485 458.906L109.57 458.907L109.654 458.911L109.739 458.918L109.824 458.927L109.908 458.939L109.993 458.954L110.078 458.971L110.162 458.991L110.247 459.013L110.332 459.038L110.417 459.066L110.501 459.096L110.586 459.129L110.671 459.165L110.755 459.204L110.84 459.245L110.925 459.288L111.009 459.335L111.094 459.384L111.179 459.435L111.263 459.489L111.348 459.546L111.433 459.606L111.517 459.668L111.602 459.733L111.687 459.8L111.771 459.87L111.856 459.943L111.941 460.019L112.025 460.097L112.11 460.177L112.195 460.261L112.195 460.261L112.279 460.345L112.364 460.43L112.449 460.515L112.534 460.599L112.618 460.684L112.703 460.769L112.788 460.854L112.872 460.938L112.957 461.023L113.042 461.108L113.126 461.192L113.211 461.277L113.296 461.362L113.38 461.446L113.465 461.531L113.55 461.616L113.634 461.7L113.719 461.785L113.804 461.87L113.888 461.954L113.973 462.039L114.058 462.124L114.142 462.208L114.227 462.293L114.312 462.378L114.396 462.462L114.481 462.547L114.566 462.632L114.65 462.716L114.735 462.801L114.82 462.886L114.905 462.97L114.905 462.97L114.991 463.056L115.079 463.145L115.17 463.236L115.264 463.33L115.361 463.427L115.46 463.526L115.562 463.628L115.667 463.733L115.774 463.84L115.884 463.95L115.996 464.062L116.111 464.177L116.229 464.295L116.349 464.415L116.472 464.538L116.598 464.664L116.726 464.792L116.857 464.923L116.991 465.057L117.127 465.193L117.266 465.332L117.408 465.474L117.552 465.618L117.699 465.765L117.848 465.914L118.001 466.067L118.155 466.221L118.313 466.379L118.473 466.539L118.636 466.702L118.801 466.867L118.969 467.035L118.969 467.035L119.138 467.199L119.308 467.353L119.477 467.496L119.647 467.628L119.816 467.75L119.985 467.861L120.155 467.961L120.324 468.051L120.493 468.131L120.663 468.199L120.832 468.258L121.001 468.305L121.171 468.342L121.34 468.369L121.509 468.385L121.679 468.39L121.848 468.385L122.018 468.369L122.187 468.342L122.356 468.305L122.526 468.258L122.695 468.199L122.864 468.131L123.034 468.051L123.203 467.961L123.372 467.861L123.542 467.75L123.711 467.628L123.881 467.496L124.05 467.353L124.219 467.199L124.389 467.035L124.389 467.035L124.557 466.867L124.722 466.702L124.885 466.539L125.045 466.379L125.202 466.221L125.357 466.067L125.509 465.914L125.659 465.765L125.806 465.618L125.95 465.474L126.091 465.332L126.23 465.193L126.367 465.057L126.5 464.923L126.631 464.792L126.76 464.664L126.885 464.538L127.008 464.415L127.129 464.295L127.247 464.177L127.362 464.062L127.474 463.95L127.584 463.84L127.691 463.733L127.796 463.628L127.897 463.526L127.997 463.427L128.093 463.33L128.187 463.236L128.279 463.145L128.367 463.056L128.453 462.97L128.453 462.97L128.538 462.886L128.623 462.801L128.707 462.716L128.792 462.632L128.877 462.547L128.961 462.462L129.046 462.378L129.131 462.293L129.215 462.208L129.3 462.124L129.385 462.039L129.469 461.954L129.554 461.87L129.639 461.785L129.723 461.7L129.808 461.616L129.893 461.531L129.977 461.446L130.062 461.362L130.147 461.277L130.231 461.192L130.316 461.108L130.401 461.023L130.485 460.938L130.57 460.854L130.655 460.769L130.74 460.684L130.824 460.599L130.909 460.515L130.994 460.43L131.078 460.345L131.163 460.261L131.163 460.261L131.248 460.177L131.332 460.097L131.417 460.019L131.502 459.943L131.586 459.87L131.671 459.8L131.756 459.733L131.84 459.668L131.925 459.606L132.01 459.546L132.094 459.489L132.179 459.435L132.264 459.384L132.348 459.335L132.433 459.288L132.518 459.245L132.602 459.204L132.687 459.165L132.772 459.129L132.857 459.096L132.941 459.066L133.026 459.038L133.111 459.013L133.195 458.991L133.28 458.971L133.365 458.954L133.449 458.939L133.534 458.927L133.619 458.918L133.703 458.911L133.788 458.907L133.873 458.906L133.873 458.906L133.958 458.906L134.045 458.906L134.133 458.906L134.222 458.906L134.313 458.906L134.405 458.906L134.498 458.906L134.592 458.906L134.688 458.906L134.786 458.906L134.884 458.906L134.984 458.906L135.085 458.906L135.188 458.906L135.292 458.906L135.397 458.906L135.503 458.906L135.611 458.906L135.72 458.906L135.831 458.906L135.943 458.906L136.056 458.906L136.17 458.906L136.286 458.906L136.403 458.906L136.522 458.906L136.641 458.906L136.762 458.906L136.885 458.906L137.008 458.906L137.133 458.906L137.26 458.906L137.26 458.906L137.387 458.906L137.514 458.906L137.641 458.906L137.768 458.906L137.895 458.906L138.022 458.906L138.149 458.906L138.276 458.906L138.403 458.906L138.53 458.906L138.657 458.906L138.784 458.906L138.911 458.906L139.038 458.906L139.165 458.906L139.292 458.906L139.419 458.906L139.546 458.906L139.673 458.906L139.8 458.906L139.927 458.906L140.054 458.906L140.181 458.906L140.308 458.906L140.435 458.906L140.562 458.906L140.689 458.906L140.816 458.906L140.943 458.906L141.07 458.906L141.197 458.906L141.324 458.906L141.324 458.906L141.447 458.908L141.563 458.914L141.67 458.924L141.769 458.938L141.86 458.956L141.944 458.977L142.019 459.003L142.087 459.033L142.146 459.067L142.198 459.104L142.241 459.146L142.277 459.192L142.305 459.241L142.325 459.295L142.337 459.352L142.341 459.414L142.337 459.479L142.325 459.549L142.305 459.622L142.277 459.7L142.241 459.781L142.198 459.866L142.146 459.956L142.087 460.049L142.019 460.146L141.944 460.248L141.86 460.353L141.769 460.462L141.67 460.575L141.563 460.692L141.447 460.813L141.324 460.938L141.324 460.938L141.195 461.067L141.062 461.2L140.926 461.337L140.785 461.478L140.64 461.623L140.491 461.772L140.338 461.925L140.181 462.081L140.02 462.242L139.856 462.407L139.687 462.576L139.514 462.748L139.338 462.925L139.157 463.105L138.973 463.29L138.784 463.479L138.592 463.671L138.395 463.868L138.195 464.068L137.99 464.272L137.782 464.481L137.569 464.693L137.353 464.91L137.133 465.13L136.909 465.354L136.68 465.582L136.448 465.815L136.212 466.051L135.972 466.291L135.728 466.535L135.48 466.783L135.228 467.035"/>
<path class="l6" d="M262.585 475.164L693.433 475.164"/>
<path class="l6" d="M53.9355 475.164L89.1621 475.164"/>
<path class="l1" d="M118.969 209.61L118.969 242.127"/>
<path class="l1" d="M118.969 339.678L118.969 372.194"/>
<path class="l1" d="M118.969 274.644L118.969 307.161"/>
<path class="l1" d="M64.7744 209.61L314.07 209.61"/>
<path class="l1" d="M64.7744 372.194L314.07 372.194"/>
<path class="l1" d="M64.7744 290.902L86.4523 290.902"/>
<path class="l1" d="M86.4523 258.386L86.4523 290.902"/>
<path class="l1" d="M86.4523 258.386L97.2913 258.386"/>
<path class="l1" d="M86.4523 290.902L86.4523 323.419"/>
<path class="l1" d="M86.4523 323.419L97.2913 323.419"/>
<path class="l1" d="M118.969 242.127L118.969 258.386"/>
<path class="l1" d="M118.969 323.419L118.969 339.678"/>
<path class="l1" d="M118.969 290.902L189.422 290.902"/>
<path class="l1" d="M243.617 209.61L243.617 242.127"/>
<path class="l1" d="M243.617 339.678L243.617 372.194"/>
<path class="l1" d="M243.617 274.644L243.617 307.161"/>
<path class="l1" d="M189.422 290.902L211.1 290.902"/>
<path class="l1" d="M211.1 258.386L211.1 290.902"/>
<path class="l1" d="M211.1 258.386L221.939 258.386"/>
<path class="l1" d="M211.1 290.902L211.1 323.419"/>
<path class="l1" d="M211.1 323.419L221.939 323.419"/>
<path class="l1" d="M243.617 242.127L243.617 258.386"/>
<path class="l1" d="M243.617 323.419L243.617 339.678"/>
<path class="l1" d="M243.617 290.902L314.07 290.902"/>
<circle class="l1" cx="118.969" cy="290.902" r="2.0052"/>
<circle class="l1" cx="86.4523" cy="290.902" r="2.0052"/>
<circle class="l1" cx="86.4523" cy="290.902" r="2.0052"/>
<circle class="l1" cx="86.4523" cy="290.902" r="2.0052"/>
<circle class="l1" cx="118.969" cy="372.194" r="2.0052"/>
<circle class="l1" cx="118.969" cy="209.61" r="2.0052"/>
<circle class="l1" cx="243.617" cy="290.902" r="2.0052"/>
<circle class="l1" cx="211.1" cy="290.902" r="2.0052"/>
<circle class="l1" cx="211.1" cy="290.902" r="2.0052"/>
<circle class="l1" cx="211.1" cy="290.902" r="2.0052"/>
<circle class="l1" cx="243.617" cy="372.194" r="2.0052"/>
<circle class="l1" cx="243.617" cy="209.61" r="2.0052"/>
</svg>
