<svg xmlns="http://www.w3.org/2000/svg" xmlns:xlink="http://www.w3.org/1999/xlink" width="1000" height="700" version="1.1">
<style type="text/css">
.l0{
  fill: #000000;
  stroke: #000000;
  stroke-linecap:round;
  stroke-linejoin:round;
  stroke-width: 0.715162;
}
.l1{
  fill: #00ccee;
  stroke: #00ccee;
  stroke-linecap:round;
  stroke-linejoin:round;
  stroke-width: 0.715162;
}
.l2{
  fill: #4f4f4f; fill-opacity: 0.2;
  stroke: #4f4f4f;
  stroke-linecap:round;
  stroke-linejoin:round;
  stroke-width: 0.715162;
}
.l3{
  fill: #cccccc; fill-opacity: 0.5;
  stroke: #cccccc;
  stroke-linecap:round;
  stroke-linejoin:round;
  stroke-width: 0.715162;
}
.l4{
  fill: #88dd00;
  stroke: #88dd00;
  stroke-linecap:round;
  stroke-linejoin:round;
  stroke-width: 0.715162;
}
.l5{
  fill: #bb2200;
  stroke: #bb2200;
  stroke-linecap:round;
  stroke-linejoin:round;
  stroke-width: 0.715162;
}
.l6{
  fill: #00ccee; fill-opacity: 0.5;
  stroke: #00ccee;
  stroke-linecap:round;
  stroke-linejoin:round;
  stroke-width: 0.715162;
}
.l7{
  fill: #ff0000; fill-opacity: 0.5;
  stroke: #ff0000;
  stroke-linecap:round;
  stroke-linejoin:round;
  stroke-width: 0.715162;
}
.l8{
  fill: #ffff00; fill-opacity: 0.5;
  stroke: #ffff00;
  stroke-linecap:round;
  stroke-linejoin:round;
  stroke-width: 0.715162;
}
.l9{
  fill: #ffffff; fill-opacity: 0.5;
  stroke: #ffffff;
  stroke-linecap:round;
  stroke-linejoin:round;
  stroke-width: 0.715162;
}
.l10{
  fill: #ff00ff;
  stroke: #ff00ff;
  stroke-linecap:round;
  stroke-linejoin:round;
  stroke-width: 0.715162;
}
.l11{
  fill: #00ff00; fill-opacity: 0.5;
  stroke: #00ff00;
  stroke-linecap:round;
  stroke-linejoin:round;
  stroke-width: 0.715162;
}
.l12{
  fill: #0000ff; fill-opacity: 0.5;
  stroke: #0000ff;
  stroke-linecap:round;
  stroke-linejoin:round;
  stroke-width: 0.715162;
}
.l13{
  fill: #aaaa00; fill-opacity: 0.5;
  stroke: #aaaa00;
  stroke-linecap:round;
  stroke-linejoin:round;
  stroke-width: 0.715162;
}
.l14{
  fill: #aaccaa; fill-opacity: 0.2;
  stroke: #aaccaa;
  stroke-linecap:round;
  stroke-linejoin:round;
  stroke-width: 0.715162;
}
.l15{
  fill: #ff7777; fill-opacity: 0.5;
  stroke: #ff7777;
  stroke-linecap:round;
  stroke-linejoin:round;
  stroke-width: 0.715162;
}
.l16{
  fill: #bfff81; fill-opacity: 0.5;
  stroke: #bfff81;
  stroke-linecap:round;
  stroke-linejoin:round;
  stroke-width: 0.715162;
}
.l17{
  fill: #00ffcc; fill-opacity: 0.2;
  stroke: #00ffcc;
  stroke-linecap:round;
  stroke-linejoin:round;
  stroke-width: 0.715162;
}
.l18{
  fill: #ce0097; fill-opacity: 0.5;
  stroke: #ce0097;
  stroke-linecap:round;
  stroke-linejoin:round;
  stroke-width: 0.715162;
}
.l19{
  fill: #d2d46b; fill-opacity: 0.2;
  stroke: #d2d46b;
  stroke-linecap:round;
  stroke-linejoin:round;
  stroke-width: 0.715162;
}
.l20{
  fill: #ef6158; fill-opacity: 0.2;
  stroke: #ef6158;
  stroke-linecap:round;
  stroke-linejoin:round;
  stroke-width: 0.715162;
}
.l21{
  fill: #fdb200; fill-opacity: 0.2;
  stroke: #fdb200;
  stroke-linecap:round;
  stroke-linejoin:round;
  stroke-width: 0.715162;
}
text {font-family: Sans-Serif;}
</style>
<rect class="l0" x="0" y="0" width="1000" height="700"/>
<text fill="#00ccee"  xml:space="preserve" font-size="11.3631" transform="translate(50.4017, 282.314)" >IN</text>
<text fill="#00ccee"  xml:space="preserve" font-size="11.3631" transform="translate(30.6774, 380.611)" >VGND</text>
<text fill="#00ccee"  xml:space="preserve" font-size="11.3631" transform="translate(392.84, 282.314)" >OUT</text>
<text fill="#00ccee"  xml:space="preserve" font-size="9.2971" transform="translate(209.911, 274.741)" >n</text>
<text fill="#00ccee"  xml:space="preserve" font-size="11.3631" transform="translate(15.6774, 181.955)" >VDDOUT</text>
<text fill="#cccccc"  xml:space="preserve" font-size="6.88674" transform="translate(274.407, 303.909)" >M3</text>
<text fill="#ff0000"  xml:space="preserve" font-size="5.16506" transform="translate(295.995, 333.8)" >S</text>
<text fill="#ff0000"  xml:space="preserve" font-size="5.16506" transform="translate(295.995, 304.699)" >D</text>
<text fill="#ff0000"  xml:space="preserve" font-size="5.16506" transform="translate(294.339, 315.59)" >B</text>
<text fill="#ff0000"  xml:space="preserve" font-size="5.16506" transform="translate(270.474, 315.59)" >G</text>
<text fill="#cccccc"  xml:space="preserve" font-size="6.88674" transform="translate(300.961, 310.082)" >nfet_01v8</text>
<text fill="#aaaa00"  xml:space="preserve" font-size="6.88674" transform="translate(301.789, 332.88)" >1 x 0.42 / 0.15</text>
<text fill="#aaaa00"  xml:space="preserve" font-size="6.88674" transform="translate(301.789, 324.603)" >nf=1</text>
<text fill="#cccccc"  xml:space="preserve" font-size="6.88674" transform="translate(274.407, 224.447)" >M4</text>
<text fill="#ff0000"  xml:space="preserve" font-size="5.16506" transform="translate(295.995, 254.338)" >D</text>
<text fill="#ff0000"  xml:space="preserve" font-size="5.16506" transform="translate(295.995, 225.237)" >S</text>
<text fill="#ff0000"  xml:space="preserve" font-size="5.16506" transform="translate(294.339, 236.127)" >B</text>
<text fill="#ff0000"  xml:space="preserve" font-size="5.16506" transform="translate(270.474, 236.127)" >G</text>
<text fill="#cccccc"  xml:space="preserve" font-size="6.88674" transform="translate(300.961, 230.619)" >pfet_01v8</text>
<text fill="#aaaa00"  xml:space="preserve" font-size="6.88674" transform="translate(301.789, 253.418)" >1 x 1 / 0.15</text>
<text fill="#aaaa00"  xml:space="preserve" font-size="6.88674" transform="translate(301.789, 245.14)" >nf=1</text>
<text fill="#cccccc"  xml:space="preserve" font-size="6.88674" transform="translate(122.104, 224.447)" >M5</text>
<text fill="#ff0000"  xml:space="preserve" font-size="5.16506" transform="translate(143.692, 254.338)" >D</text>
<text fill="#ff0000"  xml:space="preserve" font-size="5.16506" transform="translate(143.692, 225.237)" >S</text>
<text fill="#ff0000"  xml:space="preserve" font-size="5.16506" transform="translate(142.036, 236.127)" >B</text>
<text fill="#ff0000"  xml:space="preserve" font-size="5.16506" transform="translate(116.929, 236.127)" >G</text>
<text fill="#cccccc"  xml:space="preserve" font-size="6.88674" transform="translate(148.658, 230.619)" >pfet_g5v0d10v5</text>
<text fill="#aaaa00"  xml:space="preserve" font-size="6.88674" transform="translate(149.486, 253.418)" >1 x 0.42 / 0.5</text>
<text fill="#aaaa00"  xml:space="preserve" font-size="6.88674" transform="translate(149.486, 245.14)" >nf=1</text>
<text fill="#cccccc"  xml:space="preserve" font-size="6.88674" transform="translate(122.104, 303.909)" >M6</text>
<text fill="#ff0000"  xml:space="preserve" font-size="5.16506" transform="translate(143.692, 333.8)" >S</text>
<text fill="#ff0000"  xml:space="preserve" font-size="5.16506" transform="translate(143.692, 304.699)" >D</text>
<text fill="#ff0000"  xml:space="preserve" font-size="5.16506" transform="translate(142.036, 315.59)" >B</text>
<text fill="#ff0000"  xml:space="preserve" font-size="5.16506" transform="translate(118.171, 315.59)" >G</text>
<text fill="#cccccc"  xml:space="preserve" font-size="6.88674" transform="translate(148.658, 310.082)" >nfet_g5v0d10v5</text>
<text fill="#aaaa00"  xml:space="preserve" font-size="6.88674" transform="translate(149.486, 332.88)" >1 x 1 / 0.5</text>
<text fill="#aaaa00"  xml:space="preserve" font-size="6.88674" transform="translate(149.486, 324.603)" >nf=1</text>
<text fill="#cccccc"  xml:space="preserve" font-size="13.7735" transform="translate(324.138, 518.751)" >         /home/leo/Projects/IPs/sky130_leo_ip__levelshifter/xschem/sky130_leo_ip__levelshifter_down.sch</text>
<text fill="#cccccc"  xml:space="preserve" font-size="13.7735" transform="translate(324.138, 498.886)" >Leo Moser</text>
<text fill="#cccccc"  xml:space="preserve" font-size="13.7735" transform="translate(707.954, 498.886)" >2024-08-09  11:48:29</text>
<text fill="#cccccc"  xml:space="preserve" font-size="34.4337" transform="translate(171.835, 517.645)" >SCHEM</text>
<path class="l4" d="M286.062 302.623L286.062 332.421"/>
<path class="l4" d="M267.852 317.522L282.751 317.522"/>
<path class="l4" d="M294.339 297.656L294.339 305.934"/>
<path class="l4" d="M294.339 329.11L294.339 337.387"/>
<path class="l4" d="M282.751 307.589L282.751 327.455"/>
<path class="l4" d="M286.062 305.934L294.339 305.934"/>
<path class="l4" d="M286.062 329.11L291.028 329.11"/>
<path class="l4" d="M291.028 327.455L294.339 329.11L291.028 330.766L291.028 327.455"/>
<path class="l4" d="M286.062 223.16L286.062 252.959"/>
<path class="l4" d="M294.339 218.194L294.339 226.471"/>
<path class="l4" d="M294.339 249.648L294.339 257.925"/>
<path class="l4" d="M282.751 228.127L282.751 247.992"/>
<path class="l4" d="M286.062 249.648L294.339 249.648"/>
<path class="l4" d="M289.373 226.471L294.339 226.471"/>
<path class="l4" d="M267.852 238.059L276.129 238.059"/>
<path class="l4" d="M289.373 224.816L286.062 226.471L289.373 228.127L289.373 224.816"/>
<circle class="l4" cx="279.44" cy="238.059" r="3.31093" style="fill:none;" />
<path class="l4" d="M142.036 218.194L142.036 226.471"/>
<path class="l4" d="M142.036 249.648L142.036 257.925"/>
<path class="l4" d="M133.759 249.648L142.036 249.648"/>
<path class="l4" d="M137.07 226.471L142.036 226.471"/>
<path class="l4" d="M115.549 238.059L120.515 238.059"/>
<path class="l4" d="M133.759 223.16L133.759 252.959"/>
<path class="l4" d="M137.07 224.816L133.759 226.471L137.07 228.127L137.07 224.816"/>
<path class="l4" style="fill:none;" d="M127.137 247.992L127.137 228.127L130.448 228.127L130.448 247.992L127.137 247.992"/>
<circle class="l4" cx="123.826" cy="238.059" r="3.31093" style="fill:none;" />
<path class="l4" d="M142.036 297.656L142.036 305.934"/>
<path class="l4" d="M142.036 329.11L142.036 337.387"/>
<path class="l4" d="M133.759 305.934L142.036 305.934"/>
<path class="l4" d="M133.759 329.11L138.725 329.11"/>
<path class="l4" d="M133.759 302.623L133.759 332.421"/>
<path class="l4" d="M115.549 317.522L127.137 317.522"/>
<path class="l4" d="M138.725 327.455L142.036 329.11L138.725 330.766L138.725 327.455"/>
<path class="l4" style="fill:none;" d="M127.137 327.455L127.137 307.589L130.448 307.589L130.448 327.455L127.137 327.455"/>
<path class="l5" d="M72.5068 277.791L75.8177 277.791"/>
<path class="l5" d="M72.5068 277.791L70.0236 274.48L64.2295 274.48L66.7127 277.791L64.2295 281.102L70.0236 281.102L72.5068 277.791"/>
<path class="l5" d="M74.99 276.963L76.6455 276.963L76.6455 278.618L74.99 278.618L74.99 276.963z"/>
<path class="l5" d="M73.7484 377.119L75.8177 377.119"/>
<path class="l5" d="M66.7127 373.808L64.2295 377.119L66.7127 380.43L71.2652 380.43L73.7484 377.119L71.2652 373.808L66.7127 373.808"/>
<path class="l5" d="M74.99 376.291L76.6455 376.291L76.6455 377.946L74.99 377.946L74.99 376.291z"/>
<path class="l5" d="M380.424 277.791L383.735 277.791"/>
<path class="l5" d="M383.735 277.791L386.218 274.48L392.012 274.48L389.529 277.791L392.012 281.102L386.218 281.102L383.735 277.791"/>
<path class="l5" d="M379.596 276.963L381.251 276.963L381.251 278.618L379.596 278.618L379.596 276.963z"/>
<path class="l5" d="M294.339 315.866L291.028 317.522L294.339 319.177L294.339 315.866"/>
<path class="l5" d="M292.684 296.001L295.995 296.001L295.995 299.312L292.684 299.312L292.684 296.001z"/>
<path class="l5" d="M266.196 315.866L269.507 315.866L269.507 319.177L266.196 319.177L266.196 315.866z"/>
<path class="l5" d="M292.684 335.732L295.995 335.732L295.995 339.043L292.684 339.043L292.684 335.732z"/>
<path class="l5" d="M294.288 317.47L294.391 317.47L294.391 317.574L294.288 317.574L294.288 317.47z"/>
<path class="l5" d="M291.028 236.404L294.339 238.059L291.028 239.715L291.028 236.404"/>
<path class="l5" d="M292.684 256.27L295.995 256.27L295.995 259.58L292.684 259.58L292.684 256.27z"/>
<path class="l5" d="M266.196 236.404L269.507 236.404L269.507 239.715L266.196 239.715L266.196 236.404z"/>
<path class="l5" d="M292.684 216.538L295.995 216.538L295.995 219.849L292.684 219.849L292.684 216.538z"/>
<path class="l5" d="M294.288 238.008L294.391 238.008L294.391 238.111L294.288 238.111L294.288 238.008z"/>
<path class="l5" d="M207.427 276.963L209.083 276.963L209.083 278.618L207.427 278.618L207.427 276.963z"/>
<path class="l5" d="M73.7484 178.463L75.8177 178.463"/>
<path class="l5" d="M66.7127 175.152L64.2295 178.463L66.7127 181.774L71.2652 181.774L73.7484 178.463L71.2652 175.152L66.7127 175.152"/>
<path class="l5" d="M74.99 177.635L76.6455 177.635L76.6455 179.29L74.99 179.29L74.99 177.635z"/>
<path class="l5" d="M138.725 236.404L142.036 238.059L138.725 239.715L138.725 236.404"/>
<path class="l5" d="M140.381 256.27L143.692 256.27L143.692 259.58L140.381 259.58L140.381 256.27z"/>
<path class="l5" d="M113.893 236.404L117.204 236.404L117.204 239.715L113.893 239.715L113.893 236.404z"/>
<path class="l5" d="M140.381 216.538L143.692 216.538L143.692 219.849L140.381 219.849L140.381 216.538z"/>
<path class="l5" d="M141.985 238.008L142.088 238.008L142.088 238.111L141.985 238.111L141.985 238.008z"/>
<path class="l5" d="M142.036 315.866L138.725 317.522L142.036 319.177L142.036 315.866"/>
<path class="l5" d="M140.381 296.001L143.692 296.001L143.692 299.312L140.381 299.312L140.381 296.001z"/>
<path class="l5" d="M113.893 315.866L117.204 315.866L117.204 319.177L113.893 319.177L113.893 315.866z"/>
<path class="l5" d="M140.381 335.732L143.692 335.732L143.692 339.043L140.381 339.043L140.381 335.732z"/>
<path class="l5" d="M141.985 317.47L142.088 317.47L142.088 317.574L141.985 317.574L141.985 317.47z"/>
<path class="l5" d="M161.902 493.001L161.695 493.208L161.488 493.415L161.281 493.622L161.074 493.829L160.867 494.036L160.66 494.243L160.453 494.45L160.247 494.657L160.04 494.864L159.833 495.071L159.626 495.278L159.419 495.484L159.212 495.691L159.005 495.898L158.798 496.105L158.591 496.312L158.384 496.519L158.177 496.726L157.97 496.933L157.763 497.14L157.556 497.347L157.349 497.554L157.143 497.761L156.936 497.968L156.729 498.175L156.522 498.382L156.315 498.588L156.108 498.795L155.901 499.002L155.694 499.209L155.487 499.416L155.28 499.623L155.28 499.623L155.08 499.83L154.892 500.037L154.718 500.244L154.556 500.451L154.407 500.658L154.271 500.865L154.148 501.072L154.039 501.279L153.942 501.486L153.857 501.692L153.786 501.899L153.728 502.106L153.683 502.313L153.651 502.52L153.631 502.727L153.625 502.934L153.631 503.141L153.651 503.348L153.683 503.555L153.728 503.762L153.786 503.969L153.857 504.176L153.942 504.383L154.039 504.59L154.148 504.796L154.271 505.003L154.407 505.21L154.556 505.417L154.718 505.624L154.892 505.831L155.08 506.038L155.28 506.245L155.28 506.245L155.488 506.453L155.697 506.662L155.908 506.873L156.121 507.086L156.335 507.3L156.551 507.516L156.768 507.733L156.987 507.952L157.208 508.173L157.43 508.395L157.654 508.619L157.88 508.845L158.107 509.072L158.336 509.301L158.566 509.531L158.798 509.763L159.032 509.996L159.267 510.232L159.504 510.469L159.742 510.707L159.982 510.947L160.224 511.189L160.467 511.432L160.712 511.677L160.959 511.924L161.207 512.172L161.457 512.421L161.708 512.673L161.961 512.926L162.216 513.181L162.472 513.437L162.73 513.695L162.73 513.695L162.987 513.952L163.241 514.205L163.491 514.456L163.739 514.703L163.983 514.948L164.224 515.188L164.461 515.426L164.696 515.66L164.927 515.892L165.155 516.12L165.379 516.344L165.601 516.566L165.819 516.784L166.034 516.999L166.246 517.211L166.455 517.419L166.66 517.625L166.862 517.827L167.061 518.026L167.256 518.221L167.449 518.414L167.638 518.603L167.824 518.789L168.007 518.971L168.186 519.151L168.362 519.327L168.535 519.5L168.705 519.67L168.871 519.836L169.035 520L169.195 520.16L169.352 520.316L169.352 520.316L169.502 520.469L169.643 520.617L169.774 520.76L169.895 520.898L170.006 521.032L170.108 521.16L170.2 521.284L170.283 521.403L170.356 521.517L170.419 521.626L170.472 521.73L170.516 521.83L170.55 521.924L170.574 522.014L170.588 522.099L170.593 522.179L170.588 522.254L170.574 522.324L170.55 522.39L170.516 522.45L170.472 522.506L170.419 522.557L170.356 522.603L170.283 522.644L170.2 522.681L170.108 522.712L170.006 522.739L169.895 522.761L169.774 522.778L169.643 522.79L169.502 522.797L169.352 522.8L169.352 522.8L169.196 522.8L169.041 522.8L168.886 522.8L168.731 522.8L168.576 522.8L168.42 522.8L168.265 522.8L168.11 522.8L167.955 522.8L167.8 522.8L167.644 522.8L167.489 522.8L167.334 522.8L167.179 522.8L167.024 522.8L166.868 522.8L166.713 522.8L166.558 522.8L166.403 522.8L166.248 522.8L166.092 522.8L165.937 522.8L165.782 522.8L165.627 522.8L165.472 522.8L165.316 522.8L165.161 522.8L165.006 522.8L164.851 522.8L164.696 522.8L164.54 522.8L164.385 522.8L164.385 522.8L164.231 522.8L164.078 522.8L163.927 522.8L163.777 522.8L163.629 522.8L163.483 522.8L163.338 522.8L163.195 522.8L163.054 522.8L162.914 522.8L162.776 522.8L162.639 522.8L162.504 522.8L162.371 522.8L162.239 522.8L162.109 522.8L161.98 522.8L161.854 522.8L161.728 522.8L161.605 522.8L161.482 522.8L161.362 522.8L161.243 522.8L161.126 522.8L161.01 522.8L160.896 522.8L160.784 522.8L160.673 522.8L160.564 522.8L160.457 522.8L160.351 522.8L160.247 522.8L160.247 522.8L160.143 522.798L160.04 522.793L159.936 522.785L159.833 522.774L159.729 522.759L159.626 522.741L159.522 522.72L159.419 522.696L159.315 522.669L159.212 522.638L159.108 522.604L159.005 522.567L158.901 522.526L158.798 522.483L158.695 522.436L158.591 522.386L158.488 522.332L158.384 522.276L158.281 522.216L158.177 522.153L158.074 522.087L157.97 522.017L157.867 521.944L157.763 521.868L157.66 521.789L157.556 521.707L157.453 521.621L157.349 521.532L157.246 521.44L157.143 521.345L157.039 521.246L156.936 521.144L156.936 521.144L156.832 521.041L156.729 520.937L156.625 520.834L156.522 520.73L156.418 520.627L156.315 520.523L156.211 520.42L156.108 520.316L156.004 520.213L155.901 520.11L155.797 520.006L155.694 519.903L155.591 519.799L155.487 519.696L155.384 519.592L155.28 519.489L155.177 519.385L155.073 519.282L154.97 519.178L154.866 519.075L154.763 518.971L154.659 518.868L154.556 518.764L154.452 518.661L154.349 518.558L154.245 518.454L154.142 518.351L154.039 518.247L153.935 518.144L153.832 518.04L153.728 517.937L153.625 517.833L153.625 517.833L153.52 517.728L153.411 517.62L153.3 517.508L153.185 517.394L153.067 517.276L152.946 517.154L152.821 517.03L152.693 516.902L152.563 516.771L152.428 516.637L152.291 516.5L152.15 516.359L152.006 516.215L151.859 516.068L151.709 515.918L151.555 515.764L151.399 515.607L151.238 515.447L151.075 515.284L150.909 515.117L150.739 514.948L150.566 514.775L150.39 514.598L150.21 514.419L150.028 514.236L149.842 514.05L149.653 513.861L149.46 513.669L149.265 513.473L149.066 513.274L148.864 513.072L148.658 512.867L148.658 512.867L148.451 512.666L148.244 512.479L148.037 512.304L147.831 512.143L147.624 511.994L147.417 511.858L147.21 511.735L147.003 511.625L146.796 511.528L146.589 511.444L146.382 511.373L146.175 511.315L145.968 511.27L145.761 511.237L145.554 511.218L145.347 511.211L145.14 511.218L144.933 511.237L144.727 511.27L144.52 511.315L144.313 511.373L144.106 511.444L143.899 511.528L143.692 511.625L143.485 511.735L143.278 511.858L143.071 511.994L142.864 512.143L142.657 512.304L142.45 512.479L142.243 512.666L142.036 512.867L142.036 512.867L141.831 513.072L141.629 513.274L141.43 513.473L141.235 513.669L141.042 513.861L140.853 514.05L140.667 514.236L140.484 514.419L140.305 514.598L140.129 514.775L139.956 514.948L139.786 515.117L139.619 515.284L139.456 515.447L139.296 515.607L139.139 515.764L138.986 515.918L138.835 516.068L138.688 516.215L138.544 516.359L138.404 516.5L138.266 516.637L138.132 516.771L138.001 516.902L137.873 517.03L137.749 517.154L137.628 517.276L137.51 517.394L137.395 517.508L137.283 517.62L137.175 517.728L137.07 517.833L137.07 517.833L136.967 517.937L136.863 518.04L136.76 518.144L136.656 518.247L136.553 518.351L136.449 518.454L136.346 518.558L136.242 518.661L136.139 518.764L136.035 518.868L135.932 518.971L135.828 519.075L135.725 519.178L135.621 519.282L135.518 519.385L135.415 519.489L135.311 519.592L135.208 519.696L135.104 519.799L135.001 519.903L134.897 520.006L134.794 520.11L134.69 520.213L134.587 520.316L134.483 520.42L134.38 520.523L134.276 520.627L134.173 520.73L134.069 520.834L133.966 520.937L133.863 521.041L133.759 521.144L133.759 521.144L133.656 521.246L133.552 521.345L133.449 521.44L133.345 521.532L133.242 521.621L133.138 521.707L133.035 521.789L132.931 521.868L132.828 521.944L132.724 522.017L132.621 522.087L132.517 522.153L132.414 522.216L132.311 522.276L132.207 522.332L132.104 522.386L132 522.436L131.897 522.483L131.793 522.526L131.69 522.567L131.586 522.604L131.483 522.638L131.379 522.669L131.276 522.696L131.172 522.72L131.069 522.741L130.965 522.759L130.862 522.774L130.759 522.785L130.655 522.793L130.552 522.798L130.448 522.8L130.448 522.8L130.344 522.8L130.238 522.8L130.13 522.8L130.021 522.8L129.911 522.8L129.798 522.8L129.684 522.8L129.569 522.8L129.451 522.8L129.333 522.8L129.212 522.8L129.09 522.8L128.966 522.8L128.841 522.8L128.714 522.8L128.586 522.8L128.456 522.8L128.324 522.8L128.19 522.8L128.055 522.8L127.919 522.8L127.781 522.8L127.641 522.8L127.499 522.8L127.356 522.8L127.212 522.8L127.065 522.8L126.917 522.8L126.768 522.8L126.617 522.8L126.464 522.8L126.309 522.8L126.309 522.8L126.154 522.8L125.999 522.8L125.844 522.8L125.689 522.8L125.533 522.8L125.378 522.8L125.223 522.8L125.068 522.8L124.913 522.8L124.757 522.8L124.602 522.8L124.447 522.8L124.292 522.8L124.137 522.8L123.981 522.8L123.826 522.8L123.671 522.8L123.516 522.8L123.361 522.8L123.205 522.8L123.05 522.8L122.895 522.8L122.74 522.8L122.585 522.8L122.429 522.8L122.274 522.8L122.119 522.8L121.964 522.8L121.809 522.8L121.653 522.8L121.498 522.8L121.343 522.8L121.343 522.8L121.193 522.797L121.052 522.79L120.921 522.778L120.8 522.761L120.688 522.739L120.586 522.712L120.494 522.681L120.412 522.644L120.339 522.603L120.276 522.557L120.223 522.506L120.179 522.45L120.145 522.39L120.121 522.324L120.106 522.254L120.101 522.179L120.106 522.099L120.121 522.014L120.145 521.924L120.179 521.83L120.223 521.73L120.276 521.626L120.339 521.517L120.412 521.403L120.494 521.284L120.586 521.16L120.688 521.032L120.8 520.898L120.921 520.76L121.052 520.617L121.193 520.469L121.343 520.316L121.343 520.316L121.5 520.16L121.66 520L121.823 519.836L121.99 519.67L122.159 519.5L122.332 519.327L122.509 519.151L122.688 518.971L122.871 518.789L123.057 518.603L123.246 518.414L123.438 518.221L123.634 518.026L123.833 517.827L124.035 517.625L124.24 517.419L124.449 517.211L124.66 516.999L124.875 516.784L125.094 516.566L125.315 516.344L125.54 516.12L125.768 515.892L125.999 515.66L126.233 515.426L126.471 515.188L126.712 514.948L126.956 514.703L127.203 514.456L127.454 514.205L127.708 513.952L127.965 513.695L127.965 513.695L128.223 513.437L128.479 513.181L128.734 512.926L128.987 512.673L129.238 512.421L129.488 512.172L129.736 511.924L129.983 511.677L130.227 511.432L130.471 511.189L130.712 510.947L130.953 510.707L131.191 510.469L131.428 510.232L131.663 509.996L131.897 509.763L132.129 509.531L132.359 509.301L132.588 509.072L132.815 508.845L133.04 508.619L133.264 508.395L133.487 508.173L133.707 507.952L133.926 507.733L134.144 507.516L134.36 507.3L134.574 507.086L134.786 506.873L134.997 506.662L135.207 506.453L135.415 506.245L135.415 506.245L135.615 506.038L135.803 505.831L135.977 505.624L136.139 505.417L136.288 505.21L136.423 505.003L136.546 504.796L136.656 504.59L136.753 504.383L136.837 504.176L136.908 503.969L136.967 503.762L137.012 503.555L137.044 503.348L137.064 503.141L137.07 502.934L137.064 502.727L137.044 502.52L137.012 502.313L136.967 502.106L136.908 501.899L136.837 501.692L136.753 501.486L136.656 501.279L136.546 501.072L136.423 500.865L136.288 500.658L136.139 500.451L135.977 500.244L135.803 500.037L135.615 499.83L135.415 499.623L135.415 499.623L135.207 499.415L134.997 499.206L134.786 498.995L134.574 498.782L134.36 498.568L134.144 498.352L133.926 498.135L133.707 497.916L133.487 497.695L133.264 497.473L133.04 497.249L132.815 497.024L132.588 496.796L132.359 496.568L132.129 496.337L131.897 496.105L131.663 495.872L131.428 495.636L131.191 495.4L130.953 495.161L130.712 494.921L130.471 494.679L130.227 494.436L129.983 494.191L129.736 493.945L129.488 493.696L129.238 493.447L128.987 493.195L128.734 492.942L128.479 492.688L128.223 492.431L127.965 492.174L127.965 492.174L127.708 491.916L127.454 491.663L127.203 491.412L126.956 491.165L126.712 490.921L126.471 490.68L126.233 490.442L125.999 490.208L125.768 489.976L125.54 489.749L125.315 489.524L125.094 489.302L124.875 489.084L124.66 488.869L124.449 488.657L124.24 488.449L124.035 488.243L123.833 488.041L123.634 487.842L123.438 487.647L123.246 487.454L123.057 487.265L122.871 487.079L122.688 486.897L122.509 486.717L122.332 486.541L122.159 486.368L121.99 486.198L121.823 486.032L121.66 485.869L121.5 485.708L121.343 485.552L121.343 485.552L121.193 485.399L121.052 485.251L120.921 485.108L120.8 484.97L120.688 484.836L120.586 484.708L120.494 484.584L120.412 484.465L120.339 484.351L120.276 484.242L120.223 484.138L120.179 484.038L120.145 483.944L120.121 483.854L120.106 483.769L120.101 483.689L120.106 483.614L120.121 483.544L120.145 483.478L120.179 483.418L120.223 483.362L120.276 483.311L120.339 483.265L120.412 483.224L120.494 483.187L120.586 483.156L120.688 483.129L120.8 483.107L120.921 483.09L121.052 483.078L121.193 483.071L121.343 483.068L121.343 483.068L121.498 483.068L121.653 483.068L121.809 483.068L121.964 483.068L122.119 483.068L122.274 483.068L122.429 483.068L122.585 483.068L122.74 483.068L122.895 483.068L123.05 483.068L123.205 483.068L123.361 483.068L123.516 483.068L123.671 483.068L123.826 483.068L123.981 483.068L124.137 483.068L124.292 483.068L124.447 483.068L124.602 483.068L124.757 483.068L124.913 483.068L125.068 483.068L125.223 483.068L125.378 483.068L125.533 483.068L125.689 483.068L125.844 483.068L125.999 483.068L126.154 483.068L126.309 483.068L126.309 483.068L126.464 483.068L126.617 483.068L126.768 483.068L126.917 483.068L127.065 483.068L127.212 483.068L127.356 483.068L127.499 483.068L127.641 483.068L127.781 483.068L127.919 483.068L128.055 483.068L128.19 483.068L128.324 483.068L128.456 483.068L128.586 483.068L128.714 483.068L128.841 483.068L128.966 483.068L129.09 483.068L129.212 483.068L129.333 483.068L129.451 483.068L129.569 483.068L129.684 483.068L129.798 483.068L129.911 483.068L130.021 483.068L130.13 483.068L130.238 483.068L130.344 483.068L130.448 483.068L130.448 483.068L130.552 483.07L130.655 483.075L130.759 483.083L130.862 483.094L130.965 483.109L131.069 483.127L131.172 483.148L131.276 483.172L131.379 483.199L131.483 483.23L131.586 483.264L131.69 483.301L131.793 483.342L131.897 483.385L132 483.432L132.104 483.482L132.207 483.536L132.311 483.592L132.414 483.652L132.517 483.715L132.621 483.781L132.724 483.851L132.828 483.924L132.931 484L133.035 484.079L133.138 484.161L133.242 484.247L133.345 484.336L133.449 484.428L133.552 484.523L133.656 484.622L133.759 484.724L133.759 484.724L133.863 484.827L133.966 484.931L134.069 485.034L134.173 485.138L134.276 485.241L134.38 485.345L134.483 485.448L134.587 485.552L134.69 485.655L134.794 485.759L134.897 485.862L135.001 485.966L135.104 486.069L135.208 486.172L135.311 486.276L135.415 486.379L135.518 486.483L135.621 486.586L135.725 486.69L135.828 486.793L135.932 486.897L136.035 487L136.139 487.104L136.242 487.207L136.346 487.311L136.449 487.414L136.553 487.518L136.656 487.621L136.76 487.724L136.863 487.828L136.967 487.931L137.07 488.035L137.07 488.035L137.175 488.14L137.283 488.248L137.395 488.36L137.51 488.475L137.628 488.593L137.749 488.714L137.873 488.838L138.001 488.966L138.132 489.097L138.266 489.231L138.404 489.369L138.544 489.509L138.688 489.653L138.835 489.8L138.986 489.951L139.139 490.104L139.296 490.261L139.456 490.421L139.619 490.584L139.786 490.751L139.956 490.921L140.129 491.094L140.305 491.27L140.484 491.449L140.667 491.632L140.853 491.818L141.042 492.007L141.235 492.199L141.43 492.395L141.629 492.594L141.831 492.796L142.036 493.001L142.036 493.001L142.243 493.202L142.45 493.389L142.657 493.564L142.864 493.726L143.071 493.874L143.278 494.01L143.485 494.133L143.692 494.243L143.899 494.34L144.106 494.424L144.313 494.495L144.52 494.553L144.727 494.599L144.933 494.631L145.14 494.65L145.347 494.657L145.554 494.65L145.761 494.631L145.968 494.599L146.175 494.553L146.382 494.495L146.589 494.424L146.796 494.34L147.003 494.243L147.21 494.133L147.417 494.01L147.624 493.874L147.831 493.726L148.037 493.564L148.244 493.389L148.451 493.202L148.658 493.001L148.658 493.001L148.864 492.796L149.066 492.594L149.265 492.395L149.46 492.199L149.653 492.007L149.842 491.818L150.028 491.632L150.21 491.449L150.39 491.27L150.566 491.094L150.739 490.921L150.909 490.751L151.075 490.584L151.238 490.421L151.399 490.261L151.555 490.104L151.709 489.951L151.859 489.8L152.006 489.653L152.15 489.509L152.291 489.369L152.428 489.231L152.563 489.097L152.693 488.966L152.821 488.838L152.946 488.714L153.067 488.593L153.185 488.475L153.3 488.36L153.411 488.248L153.52 488.14L153.625 488.035L153.625 488.035L153.728 487.931L153.832 487.828L153.935 487.724L154.039 487.621L154.142 487.518L154.245 487.414L154.349 487.311L154.452 487.207L154.556 487.104L154.659 487L154.763 486.897L154.866 486.793L154.97 486.69L155.073 486.586L155.177 486.483L155.28 486.379L155.384 486.276L155.487 486.172L155.591 486.069L155.694 485.966L155.797 485.862L155.901 485.759L156.004 485.655L156.108 485.552L156.211 485.448L156.315 485.345L156.418 485.241L156.522 485.138L156.625 485.034L156.729 484.931L156.832 484.827L156.936 484.724L156.936 484.724L157.039 484.622L157.143 484.523L157.246 484.428L157.349 484.336L157.453 484.247L157.556 484.161L157.66 484.079L157.763 484L157.867 483.924L157.97 483.851L158.074 483.781L158.177 483.715L158.281 483.652L158.384 483.592L158.488 483.536L158.591 483.482L158.695 483.432L158.798 483.385L158.901 483.342L159.005 483.301L159.108 483.264L159.212 483.23L159.315 483.199L159.419 483.172L159.522 483.148L159.626 483.127L159.729 483.109L159.833 483.094L159.936 483.083L160.04 483.075L160.143 483.07L160.247 483.068L160.247 483.068L160.351 483.068L160.457 483.068L160.564 483.068L160.673 483.068L160.784 483.068L160.896 483.068L161.01 483.068L161.126 483.068L161.243 483.068L161.362 483.068L161.482 483.068L161.605 483.068L161.728 483.068L161.854 483.068L161.98 483.068L162.109 483.068L162.239 483.068L162.371 483.068L162.504 483.068L162.639 483.068L162.776 483.068L162.914 483.068L163.054 483.068L163.195 483.068L163.338 483.068L163.483 483.068L163.629 483.068L163.777 483.068L163.927 483.068L164.078 483.068L164.231 483.068L164.385 483.068L164.385 483.068L164.54 483.068L164.696 483.068L164.851 483.068L165.006 483.068L165.161 483.068L165.316 483.068L165.472 483.068L165.627 483.068L165.782 483.068L165.937 483.068L166.092 483.068L166.248 483.068L166.403 483.068L166.558 483.068L166.713 483.068L166.868 483.068L167.024 483.068L167.179 483.068L167.334 483.068L167.489 483.068L167.644 483.068L167.8 483.068L167.955 483.068L168.11 483.068L168.265 483.068L168.42 483.068L168.576 483.068L168.731 483.068L168.886 483.068L169.041 483.068L169.196 483.068L169.352 483.068L169.352 483.068L169.502 483.071L169.643 483.078L169.774 483.09L169.895 483.107L170.006 483.129L170.108 483.156L170.2 483.187L170.283 483.224L170.356 483.265L170.419 483.311L170.472 483.362L170.516 483.418L170.55 483.478L170.574 483.544L170.588 483.614L170.593 483.689L170.588 483.769L170.574 483.854L170.55 483.944L170.516 484.038L170.472 484.138L170.419 484.242L170.356 484.351L170.283 484.465L170.2 484.584L170.108 484.708L170.006 484.836L169.895 484.97L169.774 485.108L169.643 485.251L169.502 485.399L169.352 485.552L169.352 485.552L169.194 485.709L169.032 485.872L168.864 486.039L168.692 486.211L168.515 486.388L168.333 486.57L168.146 486.757L167.955 486.948L167.758 487.145L167.557 487.346L167.351 487.552L167.14 487.763L166.924 487.979L166.704 488.2L166.478 488.425L166.248 488.656L166.012 488.891L165.772 489.131L165.527 489.376L165.278 489.626L165.023 489.88L164.764 490.14L164.499 490.404L164.23 490.673L163.956 490.947L163.677 491.226L163.393 491.51L163.105 491.798L162.811 492.092L162.513 492.39L162.21 492.693L161.902 493.001"/>
<path class="l6" d="M317.516 502.934L843.954 502.934"/>
<path class="l6" d="M62.574 502.934L105.616 502.934"/>
<path class="l1" d="M142.036 178.463L142.036 218.194"/>
<path class="l1" d="M142.036 337.387L142.036 377.119"/>
<path class="l1" d="M142.036 257.925L142.036 297.656"/>
<path class="l1" d="M75.8177 178.463L380.424 178.463"/>
<path class="l1" d="M75.8177 377.119L380.424 377.119"/>
<path class="l1" d="M75.8177 277.791L102.305 277.791"/>
<path class="l1" d="M102.305 238.059L102.305 277.791"/>
<path class="l1" d="M102.305 238.059L115.549 238.059"/>
<path class="l1" d="M102.305 277.791L102.305 317.522"/>
<path class="l1" d="M102.305 317.522L115.549 317.522"/>
<path class="l1" d="M142.036 218.194L142.036 238.059"/>
<path class="l1" d="M142.036 317.522L142.036 337.387"/>
<path class="l1" d="M142.036 277.791L228.121 277.791"/>
<path class="l1" d="M294.339 178.463L294.339 218.194"/>
<path class="l1" d="M294.339 337.387L294.339 377.119"/>
<path class="l1" d="M294.339 257.925L294.339 297.656"/>
<path class="l1" d="M228.121 277.791L254.608 277.791"/>
<path class="l1" d="M254.608 238.059L254.608 277.791"/>
<path class="l1" d="M254.608 238.059L267.852 238.059"/>
<path class="l1" d="M254.608 277.791L254.608 317.522"/>
<path class="l1" d="M254.608 317.522L267.852 317.522"/>
<path class="l1" d="M294.339 218.194L294.339 238.059"/>
<path class="l1" d="M294.339 317.522L294.339 337.387"/>
<path class="l1" d="M294.339 277.791L380.424 277.791"/>
<circle class="l1" cx="142.036" cy="277.791" r="2.45009"/>
<circle class="l1" cx="102.305" cy="277.791" r="2.45009"/>
<circle class="l1" cx="102.305" cy="277.791" r="2.45009"/>
<circle class="l1" cx="102.305" cy="277.791" r="2.45009"/>
<circle class="l1" cx="142.036" cy="377.119" r="2.45009"/>
<circle class="l1" cx="142.036" cy="178.463" r="2.45009"/>
<circle class="l1" cx="294.339" cy="277.791" r="2.45009"/>
<circle class="l1" cx="254.608" cy="277.791" r="2.45009"/>
<circle class="l1" cx="254.608" cy="277.791" r="2.45009"/>
<circle class="l1" cx="254.608" cy="277.791" r="2.45009"/>
<circle class="l1" cx="294.339" cy="377.119" r="2.45009"/>
<circle class="l1" cx="294.339" cy="178.463" r="2.45009"/>
</svg>
